<svg width="32" height="32" viewBox="0 0 32 32" fill="none" xmlns="http://www.w3.org/2000/svg">
<path d="M5.28885 25.3333C4.34812 25.3333 3.61479 25.0129 3.08885 24.3722C2.56294 23.7315 2.37035 22.8889 2.51109 21.8444L4.04442 11.0666C4.22962 9.837 4.79444 8.79626 5.73889 7.94439C6.68331 7.09255 7.77034 6.66663 8.99999 6.66663H23.0222C24.2518 6.66663 25.3389 7.09255 26.2833 7.94439C27.2278 8.79626 27.7926 9.837 27.9778 11.0666L29.4889 21.8444C29.6296 22.8889 29.437 23.7315 28.9111 24.3722C28.3852 25.0129 27.6519 25.3333 26.7111 25.3333C26.2148 25.3333 25.7815 25.25 25.4111 25.0833C25.0407 24.9166 24.7185 24.6963 24.4445 24.4222L21.1334 21.1111H10.8666L7.55552 24.4222C7.28145 24.6963 6.95923 24.9166 6.58885 25.0833C6.21848 25.25 5.78514 25.3333 5.28885 25.3333ZM5.86662 22.9555L9.93332 18.8889H22.0667L26.1334 22.9555C26.2222 23.0444 26.4148 23.1333 26.7111 23.2222C26.9259 23.2222 27.0908 23.1314 27.2056 22.95C27.3204 22.7685 27.3556 22.5703 27.3111 22.3555L25.7556 11.4C25.6518 10.6666 25.337 10.0648 24.8111 9.59439C24.2852 9.12402 23.6889 8.88883 23.0222 8.88883H8.97775C8.31109 8.88883 7.71479 9.12402 7.18885 9.59439C6.66294 10.0648 6.34813 10.6666 6.24442 11.4L4.68885 22.3555C4.64441 22.5703 4.6796 22.7685 4.79442 22.95C4.90922 23.1314 5.07403 23.2222 5.28885 23.2222C5.40737 23.2222 5.59995 23.1333 5.86662 22.9555ZM23.1111 17.3333C23.4741 17.3333 23.787 17.2018 24.05 16.9389C24.313 16.6759 24.4445 16.3629 24.4445 16C24.4445 15.637 24.313 15.324 24.05 15.0611C23.787 14.7981 23.4741 14.6666 23.1111 14.6666C22.7481 14.6666 22.4352 14.7981 22.1722 15.0611C21.9093 15.324 21.7778 15.637 21.7778 16C21.7778 16.3629 21.9093 16.6759 22.1722 16.9389C22.4352 17.2018 22.7481 17.3333 23.1111 17.3333ZM20.3333 13.1111C20.6963 13.1111 21.0093 12.9796 21.2722 12.7166C21.5352 12.4536 21.6667 12.1407 21.6667 11.7777C21.6667 11.4148 21.5352 11.1018 21.2722 10.8389C21.0093 10.5759 20.6963 10.4444 20.3333 10.4444C19.9704 10.4444 19.6574 10.5759 19.3945 10.8389C19.1315 11.1018 19 11.4148 19 11.7777C19 12.1407 19.1315 12.4536 19.3945 12.7166C19.6574 12.9796 19.9704 13.1111 20.3333 13.1111ZM10.1111 17.2222H11.8889V14.7777H14.3333V13H11.8889V10.5555H10.1111V13H7.66665V14.7777H10.1111V17.2222Z" fill="#787878"/>
</svg>
