<svg width="32" height="32" viewBox="0 0 32 32" fill="none" xmlns="http://www.w3.org/2000/svg">
<path d="M5.28888 25.3333C4.34815 25.3333 3.61482 25.0129 3.08888 24.3722C2.56297 23.7315 2.37038 22.8889 2.51112 21.8444L4.04445 11.0666C4.22965 9.837 4.79447 8.79626 5.73892 7.94439C6.68334 7.09255 7.77037 6.66663 9.00002 6.66663H23.0223C24.2519 6.66663 25.3389 7.09255 26.2834 7.94439C27.2278 8.79626 27.7926 9.837 27.9778 11.0666L29.4889 21.8444C29.6297 22.8889 29.4371 23.7315 28.9112 24.3722C28.3852 25.0129 27.6519 25.3333 26.7112 25.3333C26.2149 25.3333 25.7815 25.25 25.4112 25.0833C25.0408 24.9166 24.7186 24.6963 24.4445 24.4222L21.1334 21.1111H10.8667L7.55555 24.4222C7.28148 24.6963 6.95926 24.9166 6.58888 25.0833C6.21851 25.25 5.78517 25.3333 5.28888 25.3333ZM5.86665 22.9555L9.93335 18.8889H22.0667L26.1334 22.9555C26.2223 23.0444 26.4149 23.1333 26.7112 23.2222C26.926 23.2222 27.0908 23.1314 27.2056 22.95C27.3204 22.7685 27.3556 22.5703 27.3112 22.3555L25.7556 11.4C25.6519 10.6666 25.3371 10.0648 24.8112 9.59439C24.2852 9.12402 23.6889 8.88883 23.0223 8.88883H8.97778C8.31112 8.88883 7.71482 9.12402 7.18888 9.59439C6.66297 10.0648 6.34816 10.6666 6.24445 11.4L4.68888 22.3555C4.64444 22.5703 4.67963 22.7685 4.79445 22.95C4.90925 23.1314 5.07406 23.2222 5.28888 23.2222C5.4074 23.2222 5.59998 23.1333 5.86665 22.9555ZM23.1112 17.3333C23.4741 17.3333 23.7871 17.2018 24.05 16.9389C24.313 16.6759 24.4445 16.3629 24.4445 16C24.4445 15.637 24.313 15.324 24.05 15.0611C23.7871 14.7981 23.4741 14.6666 23.1112 14.6666C22.7482 14.6666 22.4352 14.7981 22.1723 15.0611C21.9093 15.324 21.7778 15.637 21.7778 16C21.7778 16.3629 21.9093 16.6759 22.1723 16.9389C22.4352 17.2018 22.7482 17.3333 23.1112 17.3333ZM20.3334 13.1111C20.6963 13.1111 21.0093 12.9796 21.2723 12.7166C21.5352 12.4536 21.6667 12.1407 21.6667 11.7777C21.6667 11.4148 21.5352 11.1018 21.2723 10.8389C21.0093 10.5759 20.6963 10.4444 20.3334 10.4444C19.9704 10.4444 19.6574 10.5759 19.3945 10.8389C19.1315 11.1018 19 11.4148 19 11.7777C19 12.1407 19.1315 12.4536 19.3945 12.7166C19.6574 12.9796 19.9704 13.1111 20.3334 13.1111ZM10.1111 17.2222H11.8889V14.7777H14.3334V13H11.8889V10.5555H10.1111V13H7.66668V14.7777H10.1111V17.2222Z" fill="#58CBFB"/>
</svg>
