<svg width="78" height="54" viewBox="0 0 78 54" fill="none" xmlns="http://www.w3.org/2000/svg">
<g clip-path="url(#clip0_104_744)">
<path opacity="0.2" d="M23.1955 6.98034L23.1404 6.96643L5.63745 43.6103L67.339 48.3734L67.4085 48.3787L69.6693 18.6322L69.6738 18.5737L23.1955 6.98034ZM40.9205 30.5457L5.88029 43.4246L23.1922 7.18076L40.9205 30.5457ZM41.0232 30.656L67.0871 48.2141L6.0675 43.504L41.0232 30.656ZM41.0554 30.4936L23.3535 7.16282L69.3796 18.6433L41.0554 30.4936ZM67.2841 48.1793L41.1785 30.5929L69.5219 18.7346L67.2841 48.1793Z" fill="black"/>
<path d="M77.5555 19.2516C77.4997 20.6623 77.1032 22.0385 76.3999 23.2626C75.6966 24.4867 74.7073 25.5224 73.5167 26.2811C72.3261 27.0397 70.9695 27.4989 69.5628 27.6192C68.1562 27.7396 66.7413 27.5176 65.4391 26.9722C64.8284 26.7162 64.2491 26.3908 63.7128 26.0024C62.6877 25.2623 61.8346 24.3096 61.2116 23.2094V23.2084C60.5475 22.0317 60.1652 20.717 60.0949 19.3676C60.0245 18.0182 60.2681 16.6708 60.8063 15.4314C61.3446 14.192 62.1629 13.0943 63.1969 12.2245C64.231 11.3547 65.4527 10.7366 66.766 10.4186C68.0793 10.1007 69.4484 10.0916 70.7659 10.392C72.0833 10.6925 73.3131 11.2944 74.3586 12.1503C75.4042 13.0063 76.237 14.093 76.7917 15.3252C77.3464 16.5573 77.6078 17.9013 77.5554 19.2515L77.5555 19.2516Z" fill="white"/>
<path opacity="0.09" d="M77.5555 19.2516C77.4997 20.6623 77.1032 22.0385 76.3999 23.2626C75.6966 24.4867 74.7073 25.5224 73.5167 26.2811C72.3261 27.0397 70.9695 27.4989 69.5628 27.6192C68.1562 27.7396 66.7413 27.5176 65.4391 26.9722C64.8284 26.7162 64.2491 26.3908 63.7128 26.0024C62.6877 25.2623 61.8346 24.3096 61.2116 23.2094V23.2084C60.5475 22.0317 60.1652 20.717 60.0949 19.3676C60.0245 18.0182 60.2681 16.6708 60.8063 15.4314C61.3446 14.192 62.1629 13.0943 63.1969 12.2245C64.231 11.3547 65.4527 10.7366 66.766 10.4186C68.0793 10.1007 69.4484 10.0916 70.7659 10.392C72.0833 10.6925 73.3131 11.2944 74.3586 12.1503C75.4042 13.0063 76.237 14.093 76.7917 15.3252C77.3464 16.5573 77.6078 17.9013 77.5554 19.2515L77.5555 19.2516Z" fill="#367CFF"/>
<path d="M70.8887 12.2571C70.8887 12.2571 72.9781 12.2827 72.2577 15.1621L72.0615 15.1717L71.6632 15.1911" fill="#0C0C0C"/>
<path d="M68.5559 18.1831C68.5656 18.1822 68.6042 19.9782 70.6918 19.9027C72.137 19.8507 72.7101 18.3417 72.7432 18.343C72.5891 18.304 72.3293 18.2456 72.2618 18.2063C72.0396 18.0756 71.7637 17.9378 71.7077 17.4943C71.6754 17.2387 71.7973 15.9421 71.7853 15.6843L69.5541 16.0922C69.564 16.6361 69.7315 17.9026 68.9647 18.0959C68.837 18.1279 68.6998 18.1565 68.5559 18.1831Z" fill="#E98862"/>
<path opacity="0.52" d="M69.4644 17.6003C69.5034 17.49 69.5302 17.3757 69.5443 17.2596C69.5789 16.9946 69.5844 16.7266 69.5607 16.4605C70.0127 16.4172 70.4435 16.2481 70.8041 15.9723C70.8393 16.1253 71.0395 16.7972 70.971 16.9389C70.8424 17.2069 70.2697 17.6316 69.4644 17.6003Z" fill="#0C0C0C"/>
<path d="M69.9709 17.283C70.8455 17.2204 71.9006 16.6879 71.9372 15.5027L71.9703 14.4335C72.007 13.2485 71.414 12.2686 70.2986 12.2341C69.1829 12.1993 68.3192 13.1344 68.2825 14.3194L68.2679 14.7928C68.2657 14.9554 68.2746 15.1181 68.2945 15.2795C68.344 15.7065 68.4209 16.3558 68.7021 16.7991C68.9674 17.2176 69.4121 17.3228 69.9709 17.283Z" fill="#E98862"/>
<path d="M71.8567 15.8618C72.1958 15.8722 72.4819 15.518 72.4924 15.179C72.5029 14.84 72.2338 14.6444 71.8947 14.6339L71.713 14.8557L71.5652 15.8528L71.8567 15.8618Z" fill="#E98862"/>
<path d="M68.3398 15.6375C68.4011 15.7101 68.4795 15.7662 68.568 15.8008C68.6565 15.8354 68.7522 15.8473 68.8465 15.8354C69.0482 15.81 69.1819 15.8927 69.3503 15.8761C69.4916 15.8622 69.5161 15.7969 69.7572 15.7827C70.6882 15.7275 71.3868 15.6688 71.4321 14.5006L72.0246 13.9744C72.0246 13.9744 72.2893 17.2117 70.5383 17.642C69.4624 17.9063 68.4532 17.8097 68.3235 16.7992C68.2181 15.9781 68.3398 15.6375 68.3398 15.6375Z" fill="#0C0C0C"/>
<path d="M68.781 14.9614C68.857 14.9614 68.9185 14.8998 68.9185 14.8239C68.9185 14.748 68.857 14.6864 68.781 14.6864C68.7051 14.6864 68.6436 14.748 68.6436 14.8239C68.6436 14.8998 68.7051 14.9614 68.781 14.9614Z" fill="#0C0C0C"/>
<path d="M70.0093 14.9357C70.0852 14.9357 70.1468 14.8742 70.1468 14.7983C70.1468 14.7223 70.0852 14.6608 70.0093 14.6608C69.9334 14.6608 69.8718 14.7223 69.8718 14.7983C69.8718 14.8742 69.9334 14.9357 70.0093 14.9357Z" fill="#0C0C0C"/>
<path d="M71.5292 15.3107C71.5292 15.3107 71.4452 13.6315 70.9386 13.5186C70.6011 13.4435 69.771 13.909 69.0128 13.75C68.6812 13.6805 68.3637 13.757 68.3286 13.9137C68.3147 13.9757 68.0523 13.4256 68.586 12.7562C69.0108 12.2232 70.3923 12.0733 71.0068 12.2617C72.7087 12.7837 71.9633 14.7091 71.9633 14.7091L71.8765 15.2859L71.5292 15.3107Z" fill="#0C0C0C"/>
<path d="M72.3027 13.9566C72.8036 13.9566 73.2097 13.5506 73.2097 13.0497C73.2097 12.5488 72.8036 12.1427 72.3027 12.1427C71.8018 12.1427 71.3958 12.5488 71.3958 13.0497C71.3958 13.5506 71.8018 13.9566 72.3027 13.9566Z" fill="#0C0C0C"/>
<g opacity="0.52">
<path d="M69.3669 15.822H69.3647C69.2555 15.8189 69.0726 15.8015 69.0747 15.7198C69.0767 15.6521 69.2828 14.9262 69.3063 14.8436C69.3083 14.8365 69.3131 14.8305 69.3195 14.8269C69.326 14.8233 69.3336 14.8224 69.3407 14.8244C69.3478 14.8264 69.3538 14.8312 69.3574 14.8377C69.361 14.8441 69.3619 14.8517 69.3598 14.8588C69.2683 15.1803 69.1317 15.6753 69.1304 15.7211C69.1406 15.7407 69.2531 15.7629 69.3662 15.7661C69.3736 15.766 69.3807 15.7689 69.386 15.7741C69.3913 15.7792 69.3943 15.7863 69.3944 15.7936C69.3945 15.801 69.3916 15.8081 69.3864 15.8134C69.3813 15.8187 69.3742 15.8217 69.3669 15.8218V15.822Z" fill="#0C0C0C"/>
</g>
<path d="M69.0343 14.3567C68.9214 14.3233 68.8016 14.3209 68.6874 14.3497C68.6313 14.3635 68.5775 14.3857 68.5279 14.4155C68.4788 14.4447 68.4336 14.48 68.3934 14.5206C68.3864 14.5268 68.3822 14.5356 68.3816 14.545C68.3811 14.5543 68.3844 14.5635 68.3906 14.5705C68.3969 14.5775 68.4056 14.5817 68.415 14.5822C68.4243 14.5827 68.4335 14.5795 68.4405 14.5732L68.4427 14.5714C68.4802 14.5376 68.5218 14.5086 68.5666 14.4851C68.6106 14.4618 68.658 14.4452 68.707 14.436C68.8037 14.4171 68.9037 14.4241 68.9969 14.4563L69.0005 14.4576C69.007 14.4601 69.014 14.4613 69.0211 14.4612C69.0282 14.461 69.0351 14.4594 69.0415 14.4565C69.048 14.4536 69.0537 14.4494 69.0585 14.4442C69.0633 14.4391 69.0671 14.433 69.0695 14.4264C69.0719 14.4198 69.073 14.4127 69.0727 14.4057C69.0724 14.3986 69.0707 14.3917 69.0677 14.3853C69.0647 14.3789 69.0604 14.3732 69.0551 14.3685C69.0499 14.3638 69.0438 14.3602 69.0371 14.3579L69.0343 14.3567Z" fill="#0C0C0C"/>
<path d="M69.8443 14.4565C69.9339 14.4153 70.0327 14.3987 70.1309 14.4081C70.1806 14.4125 70.2293 14.4244 70.2754 14.4434C70.3222 14.4624 70.3665 14.4872 70.4071 14.5172L70.4093 14.5187C70.4169 14.5236 70.426 14.5255 70.4349 14.5239C70.4438 14.5223 70.4517 14.5173 70.4571 14.51C70.4624 14.5027 70.4648 14.4937 70.4636 14.4847C70.4625 14.4758 70.458 14.4676 70.451 14.4618C70.407 14.4254 70.3586 14.3946 70.3069 14.3703C70.2546 14.3455 70.199 14.3286 70.1417 14.3203C70.0253 14.3028 69.9063 14.3169 69.7972 14.3611C69.7844 14.3667 69.7743 14.377 69.769 14.39C69.7638 14.4029 69.7638 14.4174 69.7692 14.4303C69.7746 14.4432 69.7848 14.4534 69.7976 14.4589C69.8105 14.4643 69.825 14.4644 69.8379 14.4593L69.8405 14.4581L69.8443 14.4565Z" fill="#0C0C0C"/>
<path d="M75.4141 22.6676C75.3364 23.2547 75.2605 24.0612 75.1927 24.8951C74.9278 25.1769 74.6446 25.441 74.345 25.6855C74.1545 25.8402 73.9578 25.9873 73.7551 26.1268C72.6589 26.8751 71.4069 27.3644 70.0938 27.5577C68.7806 27.751 67.4408 27.6433 66.1754 27.2427C66.1581 26.4681 66.1346 25.4233 66.1113 24.4661C66.0845 23.362 66.0574 22.3734 66.0429 22.0486C65.983 20.7594 65.6412 19.8992 65.8996 19.1959C65.9768 18.9877 66.101 18.8001 66.2625 18.6477C66.8644 18.0586 68.3595 18.072 68.9592 18.0953C68.9696 18.0957 68.7843 19.4797 70.7573 19.463C72.2075 19.4511 72.3162 18.2256 72.3162 18.2256C72.3162 18.2256 73.0308 18.2999 73.5054 18.3823C74.2816 18.5183 74.7863 18.803 75.179 19.2282C75.5454 19.6246 75.7615 20.0455 75.4141 22.6676Z" fill="#367CFF"/>
<path d="M63.815 18.2318L63.8747 16.7551C63.8761 16.7226 63.8706 16.6902 63.8588 16.6599C63.8469 16.6297 63.8289 16.6022 63.8058 16.5793C63.7827 16.5564 63.7552 16.5386 63.7248 16.5269C63.6945 16.5153 63.662 16.5101 63.6296 16.5117C63.5698 16.5165 63.5139 16.5434 63.4728 16.5871C63.4317 16.6307 63.4082 16.6881 63.407 16.7481L63.3942 17.0648L62.9772 16.0507C62.9328 15.9371 62.8057 15.8261 62.6816 15.8843C62.6323 15.9036 62.5911 15.939 62.5646 15.9847C62.5381 16.0304 62.5278 16.0838 62.5355 16.1361C62.5343 16.1362 62.5332 16.1365 62.532 16.1368C62.5313 16.1373 62.5305 16.1378 62.5298 16.1384L62.4614 15.9633C62.4487 15.9308 62.4289 15.9016 62.4035 15.8778C62.3781 15.854 62.3477 15.8361 62.3146 15.8255C62.2814 15.8149 62.2462 15.8119 62.2117 15.8166C62.1772 15.8213 62.1442 15.8337 62.1151 15.8528C62.0698 15.8837 62.0365 15.9293 62.0209 15.9819C62.0052 16.0345 62.008 16.0908 62.0289 16.1416L62.0581 16.216C62.0563 16.2179 62.0549 16.22 62.0538 16.2224C62.0225 16.1766 61.9759 16.1435 61.9224 16.129C61.8689 16.1144 61.8119 16.1194 61.7617 16.1429C61.7075 16.1703 61.6657 16.2172 61.6445 16.2741C61.6234 16.3311 61.6244 16.3939 61.6475 16.4501L61.7199 16.6352C61.717 16.6333 61.7137 16.6321 61.7103 16.6317C61.7069 16.6313 61.7035 16.6317 61.7003 16.633C61.6965 16.6346 61.6933 16.6373 61.6911 16.6407C61.6518 16.6077 61.6028 16.5885 61.5516 16.5861C61.5003 16.5836 61.4497 16.5981 61.4075 16.6272C61.3638 16.6587 61.332 16.704 61.3172 16.7559C61.3025 16.8077 61.3057 16.863 61.3263 16.9128L61.9366 18.4746C62.022 18.6931 62.1707 18.8811 62.3636 19.0146C62.5566 19.148 62.785 19.2208 63.0195 19.2236C63.2218 19.226 63.4171 19.1494 63.5638 19.0102C63.7105 18.8709 63.7972 18.68 63.8054 18.4778L63.815 18.2318Z" fill="#E98862"/>
<g opacity="0.2">
<path d="M62.9431 17.142C62.9379 17.144 62.932 17.1439 62.9268 17.1417C62.9216 17.1394 62.9175 17.1353 62.9153 17.13L62.5201 16.165C62.5189 16.1623 62.5182 16.1595 62.5181 16.1565C62.518 16.1536 62.5185 16.1507 62.5195 16.1479C62.5206 16.1452 62.5222 16.1427 62.5243 16.1406C62.5263 16.1385 62.5288 16.1369 62.5315 16.1358C62.5342 16.1347 62.5371 16.1341 62.5401 16.1342C62.543 16.1342 62.5459 16.1349 62.5486 16.1361C62.5513 16.1373 62.5537 16.139 62.5556 16.1412C62.5576 16.1433 62.5591 16.1459 62.5601 16.1486L62.9553 17.1137C62.9564 17.1163 62.9569 17.1191 62.9569 17.122C62.9569 17.1248 62.9564 17.1276 62.9553 17.1302C62.9542 17.1328 62.9526 17.1352 62.9505 17.1372C62.9485 17.1392 62.9461 17.1408 62.9435 17.1418L62.9431 17.142Z" fill="#0C0C0C"/>
</g>
<g opacity="0.2">
<path d="M62.5224 17.3281C62.5171 17.3302 62.5112 17.3301 62.506 17.3278C62.5008 17.3256 62.4967 17.3213 62.4945 17.3161L62.0535 16.2391C62.0514 16.2338 62.0515 16.228 62.0537 16.2228C62.0559 16.2175 62.0601 16.2134 62.0653 16.2113C62.0706 16.2094 62.0764 16.2095 62.0815 16.2117C62.0867 16.2139 62.0908 16.2179 62.0931 16.223L62.5342 17.3C62.5363 17.3053 62.5363 17.3113 62.5341 17.3165C62.5319 17.3218 62.5276 17.326 62.5224 17.3282V17.3281Z" fill="#0C0C0C"/>
</g>
<g opacity="0.2">
<path d="M62.0678 17.5322C62.0625 17.5342 62.0566 17.5341 62.0514 17.5319C62.0462 17.5296 62.0421 17.5254 62.0399 17.5201L61.6881 16.6611C61.686 16.6558 61.686 16.6499 61.6882 16.6446C61.6904 16.6393 61.6946 16.6351 61.6999 16.633C61.7052 16.6308 61.7111 16.6308 61.7164 16.633C61.7217 16.6352 61.7259 16.6395 61.728 16.6447L62.0801 17.5036C62.0822 17.5089 62.0822 17.5148 62.08 17.5201C62.0778 17.5254 62.0735 17.5296 62.0682 17.5318L62.0678 17.5322Z" fill="#0C0C0C"/>
</g>
<path d="M68.7035 20.547L65.1095 26.0725C64.9788 26.2734 64.8037 26.4416 64.5978 26.5642C64.2915 26.3953 63.9959 26.2076 63.7127 26.0024C63.1091 25.5668 62.5636 25.0559 62.0896 24.482L61.3347 18.6291L64.3558 18.145L64.7003 20.9623L66.0805 18.8404L68.7035 20.547Z" fill="#367CFF"/>
<path d="M69.1247 16.1236C69.4544 16.1455 69.7819 16.0569 70.0556 15.8718C70.0651 15.8654 70.0762 15.8619 70.0876 15.8616C70.0991 15.8613 70.1103 15.8643 70.1201 15.8702C70.1299 15.8761 70.1379 15.8846 70.143 15.8948C70.1481 15.9051 70.1502 15.9165 70.1491 15.9279C70.127 16.1226 70.0308 16.4808 69.6223 16.5264C69.3585 16.5558 69.1673 16.3532 69.071 16.2185C69.0644 16.2092 69.0605 16.1982 69.0599 16.1867C69.0593 16.1753 69.062 16.1639 69.0676 16.1539C69.0732 16.144 69.0816 16.1358 69.0917 16.1304C69.1018 16.1251 69.1133 16.1227 69.1247 16.1236Z" fill="white"/>
<path d="M76.3888 23.2886C75.8577 24.2042 75.1653 25.0163 74.3451 25.6855C74.1546 25.8402 73.958 25.9873 73.7553 26.1268L72.3516 20.7866L75.5128 19.9551L76.3888 23.2886Z" fill="#367CFF"/>
<path d="M73.7859 26.106C73.7759 26.1125 73.765 26.1199 73.7551 26.1268C73.7453 26.1338 73.7351 26.1407 73.7251 26.1472L72.6553 22.079L72.7228 22.0614L73.7859 26.106Z" fill="#0C0C0C"/>
<path d="M66.1199 24.7176C66.1112 24.7173 66.103 24.7137 66.0968 24.7075C66.0906 24.7014 66.087 24.6932 66.0866 24.6845L66.0176 23.1685C66.0172 23.1592 66.0205 23.1502 66.0267 23.1434C66.0329 23.1366 66.0416 23.1325 66.0508 23.1321C66.06 23.1317 66.0691 23.135 66.0759 23.1412C66.0827 23.1474 66.0867 23.1561 66.0872 23.1653L66.1561 24.6813C66.1565 24.6905 66.1532 24.6995 66.147 24.7063C66.1408 24.7131 66.1322 24.7172 66.123 24.7176H66.1199Z" fill="#0C0C0C"/>
<path d="M40.1201 38.7465C45.0406 38.7465 49.0294 34.7576 49.0294 29.8371C49.0294 24.9166 45.0406 20.9277 40.1201 20.9277C35.1996 20.9277 31.2107 24.9166 31.2107 29.8371C31.2107 34.7576 35.1996 38.7465 40.1201 38.7465Z" fill="white"/>
<path opacity="0.09" d="M49.0296 29.8368C49.0296 31.5989 48.5071 33.3214 47.5282 34.7865C46.5492 36.2516 45.1578 37.3935 43.5298 38.0678C41.9019 38.7421 40.1105 38.9186 38.3823 38.5748C36.6541 38.2311 35.0666 37.3825 33.8206 36.1366C32.5747 34.8906 31.7261 33.3031 31.3824 31.5749C31.0386 29.8467 31.215 28.0553 31.8894 26.4274C32.5637 24.7994 33.7056 23.408 35.1707 22.429C36.6358 21.4501 38.3583 20.9276 40.1204 20.9276C41.2916 20.9232 42.4521 21.1507 43.5349 21.5969C44.6178 22.0431 45.6017 22.6992 46.4298 23.5273C47.258 24.3555 47.9141 25.3394 48.3603 26.4222C48.8065 27.5051 49.034 28.6656 49.0296 29.8368Z" fill="#367CFF"/>
<path d="M36.1765 24.582C36.1765 24.582 36.0869 25.927 35.7842 26.4149C34.9132 27.8197 34.6608 29.4 35.5331 30.2258C36.4055 31.0517 41.9696 31.063 42.3911 29.1639C42.7457 27.5652 41.9844 27.3933 41.7991 26.0744C41.7153 25.4777 41.4846 24.2263 41.4846 24.2263" fill="#0A0A0A"/>
<path d="M40.9508 28.8853C40.9412 28.8841 40.8347 30.6526 38.7801 30.4987C37.3578 30.3922 36.8507 28.8831 36.8181 28.8831C36.9715 28.8506 37.2297 28.8031 37.298 28.7668C37.5219 28.6465 37.799 28.5213 37.8712 28.0863C37.9129 27.836 37.8422 26.5532 37.8642 26.2996L40.0474 26.7868C40.017 27.3223 39.8034 28.5643 40.5518 28.7841C40.6759 28.8202 40.81 28.8536 40.9508 28.8853Z" fill="#E98862"/>
<path opacity="0.5" d="M40.0776 28.2764C40.0435 28.1661 40.0214 28.0525 40.012 27.9375C39.988 27.675 39.9928 27.4108 40.0262 27.1494C39.5825 27.0895 39.1645 26.9064 38.8196 26.6208C38.7791 26.7706 38.5561 27.4248 38.6179 27.5671C38.7348 27.8359 39.2828 28.2764 40.0776 28.2764Z" fill="#0C0C0C"/>
<path d="M39.7954 27.7253C38.9346 27.8088 37.8209 27.4643 37.5902 26.318L37.382 25.2837C37.1513 24.1375 37.5664 23.087 38.6456 22.8698C39.7249 22.6526 40.7186 23.4192 40.9493 24.5658L41.0415 25.0236C41.13 25.4635 41.3312 27.5767 39.7954 27.7253Z" fill="#E98862"/>
<path opacity="0.1" d="M39.2481 26.2235C39.3898 26.2066 39.4945 26.1087 39.4821 26.0048C39.4697 25.9009 39.3449 25.8303 39.2032 25.8472C39.0616 25.8641 38.9568 25.9621 38.9692 26.066C38.9816 26.1699 39.1065 26.2404 39.2481 26.2235Z" fill="#0C0C0C"/>
<path opacity="0.1" d="M40.7451 25.8078C40.7578 25.9115 40.8827 25.9817 41.0243 25.9653C41.0488 25.9623 41.0729 25.9569 41.0963 25.949C41.1028 25.8253 41.1033 25.7062 41.0996 25.5961C41.0603 25.5863 41.0195 25.5839 40.9793 25.5891C40.8376 25.6057 40.7329 25.7037 40.7451 25.8078Z" fill="#0C0C0C"/>
<path opacity="0.5" d="M40.1191 26.1286H40.1212C40.1649 26.1194 40.2081 26.1078 40.2505 26.0938C40.3139 26.0729 40.3966 26.0378 40.3853 25.9805C40.3721 25.9152 40.0515 25.2465 40.0148 25.1704C40.0114 25.1642 40.0057 25.1595 39.999 25.1573C39.9922 25.1552 39.9848 25.1557 39.9784 25.1588C39.972 25.1618 39.967 25.1673 39.9645 25.1739C39.9619 25.1806 39.962 25.1879 39.9648 25.1945C40.1016 25.4796 40.3219 25.9475 40.3308 25.9914C40.3238 26.012 40.2187 26.052 40.1102 26.0739C40.1033 26.0755 40.0973 26.0796 40.0933 26.0855C40.0894 26.0914 40.0878 26.0985 40.089 26.1055C40.0901 26.1125 40.0938 26.1187 40.0994 26.1231C40.105 26.1274 40.1121 26.1294 40.1191 26.1287V26.1286Z" fill="#0C0C0C"/>
<path d="M36.5208 25.655L37.4884 25.466C38.2193 25.16 38.4267 23.8866 38.4267 23.8866C38.4267 23.8866 39.3287 24.7456 41.4845 24.2261C41.4845 24.2261 41.0162 21.2166 37.833 22.1301C36.8066 22.4247 36.0795 23.4709 36.1877 24.8566C36.2634 25.8279 36.5208 25.655 36.5208 25.655Z" fill="#0A0A0A"/>
<path d="M37.7275 26.6538C37.3996 26.7198 37.0631 26.4225 36.9974 26.0944C36.9316 25.7664 37.1608 25.5321 37.4888 25.4661L37.702 25.6518L38.0098 26.5971L37.7275 26.6538Z" fill="#E98862"/>
<path d="M40.2474 24.6372C40.3294 24.5791 40.4254 24.5438 40.5256 24.535C40.5758 24.5302 40.6266 24.533 40.676 24.5432C40.7259 24.5534 40.7743 24.5697 40.8201 24.5919L40.8215 24.5925C40.8266 24.5946 40.8322 24.5946 40.8373 24.5926C40.8424 24.5906 40.8465 24.5868 40.8488 24.5819C40.8511 24.5769 40.8514 24.5713 40.8497 24.5662C40.848 24.561 40.8444 24.5567 40.8396 24.5541C40.7911 24.5285 40.7395 24.5091 40.6861 24.4964C40.6324 24.4833 40.577 24.4784 40.5218 24.4818C40.4101 24.488 40.302 24.524 40.2089 24.5861C40.2053 24.5884 40.2022 24.5914 40.1997 24.5949C40.1973 24.5984 40.1956 24.6024 40.1947 24.6066C40.1939 24.6108 40.1939 24.6151 40.1947 24.6193C40.1956 24.6235 40.1972 24.6275 40.1996 24.631C40.202 24.6345 40.2051 24.6375 40.2087 24.6399C40.2123 24.6422 40.2164 24.6437 40.2206 24.6445C40.2248 24.6452 40.2291 24.6451 40.2333 24.6441C40.2375 24.6431 40.2414 24.6413 40.2448 24.6388L40.2455 24.6383L40.2474 24.6372Z" fill="#0C0C0C"/>
<path d="M39.3637 24.7592C39.2538 24.7374 39.1401 24.7454 39.0344 24.7825C38.9822 24.8005 38.9329 24.8263 38.8884 24.859C38.844 24.8912 38.8038 24.9289 38.7687 24.9711C38.7652 24.9753 38.7634 24.9807 38.7637 24.9862C38.7641 24.9917 38.7665 24.9969 38.7706 25.0006C38.7747 25.0043 38.78 25.0063 38.7855 25.0061C38.7911 25.006 38.7963 25.0037 38.8001 24.9998L38.8013 24.9986C38.835 24.9605 38.8735 24.9268 38.9157 24.8984C38.9574 24.8699 39.0032 24.8479 39.0515 24.8331C39.1474 24.803 39.2495 24.7988 39.3476 24.821L39.35 24.8216C39.3541 24.8227 39.3584 24.8229 39.3626 24.8223C39.3668 24.8218 39.3709 24.8203 39.3745 24.8182C39.3782 24.816 39.3814 24.8131 39.3839 24.8097C39.3864 24.8063 39.3882 24.8024 39.3892 24.7982C39.3902 24.7941 39.3904 24.7898 39.3897 24.7856C39.389 24.7814 39.3875 24.7774 39.3853 24.7738C39.383 24.7702 39.3801 24.7671 39.3766 24.7646C39.3731 24.7622 39.3692 24.7605 39.365 24.7596L39.3637 24.7592Z" fill="#0C0C0C"/>
<path d="M37.4892 25.4502C38.1397 25.2081 38.3555 24.7589 38.422 24.4246C38.465 24.2017 38.461 23.9723 38.4102 23.751L38.39 23.7565C38.4401 23.9749 38.4439 24.2014 38.4013 24.4214C38.3358 24.7501 38.1232 25.1921 37.4819 25.4306L37.4892 25.4502Z" fill="#0C0C0C"/>
<path d="M45.7126 28.533L46.102 27.2117C46.1106 27.1827 46.1251 27.1558 46.1446 27.1327C46.1642 27.1096 46.1883 27.0908 46.2155 27.0775C46.2427 27.0642 46.2723 27.0567 46.3026 27.0555C46.3328 27.0544 46.363 27.0595 46.3911 27.0706C46.4425 27.0927 46.4838 27.1331 46.507 27.1839C46.5302 27.2347 46.5338 27.2924 46.5169 27.3457L46.4335 27.629L47.1048 26.8586C47.1779 26.7716 47.3233 26.7117 47.4154 26.8002C47.4531 26.8319 47.4789 26.8755 47.4886 26.9238C47.4984 26.972 47.4915 27.0222 47.469 27.066C47.47 27.0665 47.471 27.0671 47.4718 27.0678C47.4724 27.0684 47.4729 27.0691 47.4733 27.0698L47.5861 26.9357C47.607 26.9108 47.6332 26.891 47.6628 26.8776C47.6923 26.8642 47.7245 26.8575 47.7569 26.8581C47.7894 26.8587 47.8213 26.8665 47.8503 26.881C47.8794 26.8954 47.9048 26.9162 47.9248 26.9418C47.9555 26.9827 47.9712 27.0328 47.9693 27.0839C47.9674 27.135 47.9481 27.1839 47.9144 27.2224L47.8665 27.2795C47.8675 27.2816 47.8681 27.284 47.8683 27.2864C47.9096 27.2554 47.9607 27.2401 48.0123 27.2433C48.0639 27.2465 48.1127 27.2679 48.15 27.3037C48.1896 27.3441 48.2126 27.398 48.2142 27.4546C48.2159 27.5112 48.1962 27.5663 48.159 27.609L48.0397 27.7507C48.0428 27.7499 48.046 27.7498 48.0492 27.7505C48.0523 27.7511 48.0552 27.7525 48.0577 27.7546C48.0605 27.7572 48.0625 27.7605 48.0635 27.7642C48.108 27.7469 48.1571 27.7447 48.203 27.7579C48.249 27.7712 48.2893 27.7992 48.3178 27.8376C48.3469 27.8785 48.3614 27.928 48.3589 27.9782C48.3563 28.0283 48.337 28.0761 48.3039 28.1139L47.298 29.31C47.1573 29.4773 46.9698 29.5988 46.7596 29.6588C46.5494 29.7188 46.3261 29.7147 46.1182 29.647C45.939 29.5887 45.7896 29.4627 45.7018 29.2959C45.614 29.1292 45.5947 28.9347 45.6479 28.7539L45.7126 28.533Z" fill="#E98862"/>
<g opacity="0.2">
<path d="M46.808 27.8322C46.8121 27.8354 46.8172 27.837 46.8224 27.8366C46.8276 27.8361 46.8324 27.8337 46.8359 27.8299L47.4733 27.0964C47.4768 27.0924 47.4785 27.0871 47.4781 27.0818C47.4778 27.0765 47.4753 27.0715 47.4713 27.068C47.4672 27.0645 47.462 27.0628 47.4567 27.0632C47.4513 27.0635 47.4464 27.066 47.4429 27.07L46.8055 27.8034C46.8037 27.8054 46.8024 27.8077 46.8016 27.8103C46.8007 27.8128 46.8004 27.8154 46.8006 27.818C46.8008 27.8207 46.8015 27.8232 46.8027 27.8256C46.8038 27.828 46.8055 27.8301 46.8075 27.8318L46.808 27.8322Z" fill="#0C0C0C"/>
</g>
<g opacity="0.2">
<path d="M47.1237 28.1221C47.1277 28.1254 47.1329 28.127 47.1381 28.1266C47.1433 28.1262 47.1481 28.1237 47.1515 28.1198L47.8629 27.3013C47.8646 27.2993 47.8659 27.297 47.8668 27.2945C47.8676 27.292 47.8679 27.2893 47.8677 27.2867C47.8676 27.2841 47.8669 27.2815 47.8657 27.2791C47.8645 27.2768 47.8629 27.2747 47.8609 27.2729C47.8567 27.2696 47.8515 27.268 47.8463 27.2684C47.841 27.2687 47.8361 27.2711 47.8325 27.275L47.1216 28.0935C47.1199 28.0955 47.1186 28.0978 47.1177 28.1003C47.1169 28.1028 47.1166 28.1054 47.1167 28.1081C47.1169 28.1107 47.1176 28.1133 47.1188 28.1156C47.12 28.118 47.1216 28.1201 47.1236 28.1218L47.1237 28.1221Z" fill="#0C0C0C"/>
</g>
<g opacity="0.2">
<path d="M47.4638 28.4383C47.4678 28.4416 47.473 28.4432 47.4782 28.4428C47.4834 28.4423 47.4882 28.4399 47.4916 28.436L48.0591 27.7831C48.0622 27.7791 48.0637 27.7739 48.0632 27.7688C48.0627 27.7637 48.0603 27.7589 48.0564 27.7556C48.0525 27.7522 48.0475 27.7504 48.0423 27.7506C48.0372 27.7508 48.0323 27.753 48.0287 27.7567L47.4612 28.4097C47.4595 28.4116 47.4582 28.414 47.4573 28.4165C47.4565 28.419 47.4562 28.4216 47.4563 28.4243C47.4565 28.4269 47.4572 28.4295 47.4584 28.4318C47.4596 28.4342 47.4612 28.4363 47.4632 28.438L47.4638 28.4383Z" fill="#0C0C0C"/>
</g>
<path d="M48.0826 29.1098L46.577 35.9402C46.5735 35.9555 46.57 35.9715 46.5659 35.9868C46.2277 36.3406 45.8614 36.6665 45.4706 36.961C45.392 37.0195 45.3134 37.0772 45.2328 37.1329C45.1829 37.1384 45.1327 37.1412 45.0825 37.1412C44.8142 37.1411 44.5506 37.0705 44.3182 36.9363C44.0858 36.8022 43.8928 36.6093 43.7585 36.377L40.8892 31.4121L43.5387 29.8815L44.4365 31.4351L45.0944 28.451L48.0826 29.1098Z" fill="#0CBC8B"/>
<path d="M43.449 32.2239C43.4399 32.3323 43.4218 32.5257 43.3968 32.7802C43.2716 34.0814 42.9788 36.9813 42.8432 38.3213C41.1301 38.869 39.2917 38.8877 37.5678 38.3749H37.5671C36.294 37.9938 35.1225 37.3323 34.1387 36.4388C34.1442 35.2406 34.1269 33.8929 34.0462 33.0264C33.8049 30.4373 34.033 30.0319 34.4078 29.6571C34.4384 29.6265 34.4704 29.5966 34.5024 29.5674C34.8897 29.2155 35.3758 28.986 36.0845 28.89C36.5532 28.8268 37.2583 28.7809 37.2583 28.7809C37.2583 28.7809 37.3181 29.9895 38.7417 30.0562C40.6798 30.1474 40.5504 28.7809 40.5602 28.7809C41.0477 28.7809 42.1325 28.8115 42.8168 29.1599C42.8175 29.1599 42.8175 29.1599 42.8182 29.1606C42.956 29.2276 43.0814 29.3177 43.1889 29.4269C43.9726 30.2573 43.5859 30.6123 43.449 32.2239Z" fill="#0CBC8B"/>
<path d="M40.4075 26.3545C40.1278 26.4967 39.8087 26.5416 39.5007 26.4823C39.49 26.4803 39.479 26.4813 39.4689 26.4853C39.4588 26.4894 39.4501 26.4962 39.4437 26.505C39.4373 26.5138 39.4336 26.5242 39.433 26.535C39.4323 26.5459 39.4348 26.5567 39.44 26.5661C39.532 26.728 39.7498 27.0047 40.1235 26.892C40.3648 26.8191 40.456 26.5709 40.4898 26.4173C40.4922 26.4066 40.4914 26.3956 40.4877 26.3853C40.4839 26.3751 40.4773 26.3662 40.4687 26.3596C40.46 26.353 40.4497 26.349 40.4388 26.3481C40.428 26.3472 40.4171 26.3494 40.4075 26.3545Z" fill="white"/>
<path d="M40.4252 25.1107C40.4998 25.1107 40.5603 25.0502 40.5603 24.9756C40.5603 24.9009 40.4998 24.8405 40.4252 24.8405C40.3505 24.8405 40.29 24.9009 40.29 24.9756C40.29 25.0502 40.3505 25.1107 40.4252 25.1107Z" fill="#0C0C0C"/>
<path d="M39.1266 25.338C39.2012 25.338 39.2617 25.2775 39.2617 25.2029C39.2617 25.1282 39.2012 25.0677 39.1266 25.0677C39.0519 25.0677 38.9915 25.1282 38.9915 25.2029C38.9915 25.2775 39.0519 25.338 39.1266 25.338Z" fill="#0C0C0C"/>
<path d="M43.1503 35.1409C43.1494 35.1409 43.1485 35.1409 43.1476 35.1409C43.1422 35.1401 43.1372 35.1372 43.1339 35.1328C43.1305 35.1284 43.1291 35.1228 43.1298 35.1173L43.3687 32.7106C43.369 32.7078 43.3699 32.7052 43.3713 32.7028C43.3726 32.7004 43.3745 32.6983 43.3767 32.6966C43.3789 32.695 43.3814 32.6938 43.3841 32.6931C43.3868 32.6924 43.3896 32.6923 43.3923 32.6928C43.3978 32.6935 43.4027 32.6964 43.406 32.7008C43.4094 32.7052 43.4108 32.7108 43.4101 32.7163L43.1712 35.123C43.1705 35.128 43.1679 35.1326 43.1641 35.1359C43.1602 35.1392 43.1553 35.1409 43.1503 35.1409Z" fill="#0C0C0C"/>
<path d="M41.7043 35.025L43.01 34.4419C43.0386 34.4291 43.0696 34.4225 43.101 34.4224C43.1324 34.4222 43.1635 34.4286 43.1922 34.4412C43.221 34.4537 43.2469 34.4721 43.2682 34.4951C43.2895 34.5182 43.3057 34.5454 43.3159 34.5751C43.3331 34.6305 43.3291 34.6903 43.3047 34.7429C43.2803 34.7955 43.2372 34.8372 43.1838 34.8598L42.9038 34.985L43.9648 34.9959C44.083 34.9951 44.2281 35.0695 44.2203 35.2019C44.2206 35.2531 44.2036 35.3028 44.172 35.343C44.1404 35.3833 44.0962 35.4116 44.0464 35.4235C44.0467 35.4246 44.0469 35.4257 44.0469 35.4268C44.0468 35.4277 44.0466 35.4285 44.0464 35.4294L44.2283 35.4281C44.262 35.4279 44.2953 35.4352 44.3258 35.4495C44.3562 35.4637 44.3832 35.4846 44.4046 35.5106C44.426 35.5365 44.4413 35.567 44.4495 35.5996C44.4576 35.6323 44.4584 35.6663 44.4518 35.6993C44.4401 35.7511 44.4111 35.7973 44.3695 35.8302C44.3278 35.8631 44.2762 35.8808 44.2231 35.8801L44.1457 35.8807C44.1447 35.883 44.1433 35.885 44.1415 35.8868C44.1939 35.8985 44.2404 35.9285 44.2727 35.9714C44.305 36.0143 44.321 36.0673 44.3178 36.1209C44.3126 36.1794 44.2855 36.2338 44.2419 36.2733C44.1984 36.3127 44.1415 36.3343 44.0828 36.3337L43.8905 36.335C43.8932 36.3369 43.8955 36.3394 43.897 36.3424C43.8986 36.3453 43.8994 36.3486 43.8995 36.3519C43.8993 36.3559 43.898 36.3597 43.8958 36.3629C43.9396 36.3864 43.9745 36.4236 43.995 36.4688C44.0156 36.5141 44.0207 36.5648 44.0096 36.6133C43.997 36.6638 43.9677 36.7087 43.9264 36.7405C43.8851 36.7724 43.8343 36.7893 43.7822 36.7887L42.1598 36.8003C41.9328 36.8019 41.7106 36.7357 41.5215 36.6101C41.3324 36.4846 41.1851 36.3054 41.0985 36.0957C41.0237 35.9148 41.0225 35.7118 41.095 35.53C41.1675 35.3482 41.3081 35.2019 41.4868 35.1221L41.7043 35.025Z" fill="#E98862"/>
<g opacity="0.2">
<path d="M42.9963 35.4177C42.9963 35.4232 42.9985 35.4286 43.0024 35.4325C43.0064 35.4364 43.0117 35.4386 43.0172 35.4386L44.0261 35.4477C44.0316 35.4477 44.037 35.4456 44.0409 35.4417C44.0449 35.4378 44.0471 35.4325 44.0471 35.427C44.0472 35.4215 44.045 35.4161 44.0412 35.4122C44.0373 35.4082 44.032 35.406 44.0265 35.406L43.0174 35.3969C43.0119 35.3969 43.0066 35.399 43.0027 35.403C42.9987 35.4069 42.9965 35.4122 42.9965 35.4177H42.9963Z" fill="#0C0C0C"/>
</g>
<g opacity="0.2">
<path d="M42.98 35.8628C42.98 35.8683 42.9822 35.8736 42.9862 35.8775C42.9901 35.8814 42.9954 35.8836 43.0009 35.8836L44.1268 35.8938C44.1323 35.8938 44.1376 35.8916 44.1415 35.8877C44.1455 35.8838 44.1477 35.8785 44.1477 35.8729C44.1475 35.8675 44.1453 35.8622 44.1414 35.8584C44.1375 35.8545 44.1323 35.8522 44.1268 35.8521L43.0008 35.8419C42.9953 35.8419 42.99 35.8441 42.9861 35.848C42.9822 35.8519 42.98 35.8572 42.98 35.8628Z" fill="#0C0C0C"/>
</g>
<g opacity="0.2">
<path d="M42.9595 36.3443C42.9595 36.3498 42.9617 36.3551 42.9656 36.359C42.9695 36.3629 42.9748 36.3651 42.9803 36.3651L43.8785 36.3733C43.884 36.3733 43.8893 36.3711 43.8932 36.3672C43.8971 36.3633 43.8993 36.3579 43.8993 36.3524C43.8993 36.3469 43.8971 36.3416 43.8932 36.3377C43.8893 36.3338 43.884 36.3316 43.8785 36.3316L42.9803 36.3235C42.9748 36.3235 42.9695 36.3257 42.9656 36.3296C42.9617 36.3335 42.9595 36.3388 42.9595 36.3444V36.3443Z" fill="#0C0C0C"/>
</g>
<path d="M42.0783 37.3499L37.5678 38.3749H37.5671C36.294 37.9939 35.1225 37.3323 34.1387 36.4389C34.033 36.3429 33.9296 36.2446 33.8286 36.144C33.6524 35.9681 33.4839 35.7852 33.323 35.5953L33.9544 30.516C34.0233 30.1066 34.252 29.7412 34.5903 29.5004C34.9285 29.2596 35.3486 29.163 35.758 29.2319C36.1675 29.3008 36.5328 29.5295 36.7736 29.8678C37.0144 30.206 37.111 30.626 37.0421 31.0355L36.6429 35.8047L41.6722 34.6662L42.0783 37.3499Z" fill="#0CBC8B"/>
<path d="M35.6255 35.992C35.6228 35.9922 35.62 35.9919 35.6174 35.9911C35.6148 35.9902 35.6124 35.9888 35.6103 35.987C35.6082 35.9852 35.6065 35.9831 35.6053 35.9806C35.604 35.9782 35.6033 35.9755 35.6031 35.9727C35.6029 35.97 35.6032 35.9673 35.6041 35.9646C35.6049 35.962 35.6063 35.9596 35.6081 35.9575C35.6099 35.9555 35.6121 35.9537 35.6145 35.9525C35.617 35.9513 35.6196 35.9505 35.6224 35.9503L36.6307 35.7347C36.6335 35.7343 36.6362 35.7344 36.6389 35.7351C36.6416 35.7358 36.6441 35.7369 36.6463 35.7386C36.6485 35.7402 36.6503 35.7422 36.6518 35.7446C36.6532 35.7469 36.6541 35.7495 36.6545 35.7523C36.6549 35.755 36.6548 35.7577 36.6541 35.7604C36.6535 35.7631 36.6523 35.7656 36.6506 35.7678C36.649 35.77 36.647 35.7718 36.6446 35.7732C36.6423 35.7746 36.6396 35.7756 36.6369 35.776L35.6282 35.9916C35.6273 35.9918 35.6264 35.992 35.6255 35.992Z" fill="#0C0C0C"/>
<path d="M42.0783 37.3498C42.0794 37.3552 42.0785 37.3608 42.0756 37.3654C42.0728 37.3701 42.0683 37.3735 42.063 37.3749L37.6811 38.4076C37.6533 38.3999 37.6262 38.3923 37.5991 38.3839L42.0324 37.3401L41.6374 34.6975L36.638 35.776C36.6348 35.7766 36.6315 35.7764 36.6283 35.7754C36.6252 35.7744 36.6223 35.7728 36.6199 35.7706C36.6179 35.7681 36.6163 35.7652 36.6153 35.7621C36.6144 35.759 36.6141 35.7557 36.6144 35.7525L36.8946 33.0271C36.8951 33.0244 36.8961 33.0218 36.8976 33.0195C36.8991 33.0172 36.9011 33.0152 36.9033 33.0137C36.9056 33.0121 36.9081 33.011 36.9108 33.0105C36.9135 33.0099 36.9163 33.0099 36.919 33.0104C36.9244 33.0112 36.9293 33.0142 36.9325 33.0186C36.9358 33.0231 36.9372 33.0286 36.9364 33.0341L36.6603 35.7316L41.6464 34.6509C41.6491 34.6502 41.652 34.65 41.6547 34.6505C41.6575 34.651 41.6601 34.6521 41.6624 34.6537C41.6648 34.655 41.6669 34.6568 41.6686 34.6589C41.6703 34.6611 41.6715 34.6635 41.6722 34.6662L42.0783 37.3498Z" fill="#0C0C0C"/>
<path d="M8.16937 49.0116C12.6812 49.0116 16.3387 45.354 16.3387 40.8422C16.3387 36.3304 12.6812 32.6729 8.16937 32.6729C3.65755 32.6729 0 36.3304 0 40.8422C0 45.354 3.65755 49.0116 8.16937 49.0116Z" fill="white"/>
<path opacity="0.09" d="M8.16937 49.0116C12.6812 49.0116 16.3387 45.354 16.3387 40.8422C16.3387 36.3304 12.6812 32.6729 8.16937 32.6729C3.65755 32.6729 0 36.3304 0 40.8422C0 45.354 3.65755 49.0116 8.16937 49.0116Z" fill="#367CFF"/>
<path d="M5.91968 36.2086C5.91968 36.2086 6.0082 38.6691 7.65044 38.7821L7.92861 35.5376L5.91968 36.2086Z" fill="#0A0A0A"/>
<path d="M6.23583 39.2846C6.77314 39.2846 7.20872 38.8491 7.20872 38.3118C7.20872 37.7744 6.77314 37.3389 6.23583 37.3389C5.69852 37.3389 5.26294 37.7744 5.26294 38.3118C5.26294 38.8491 5.69852 39.2846 6.23583 39.2846Z" fill="#0A0A0A"/>
<path d="M10.0426 39.9241C10.0339 39.9229 9.9378 41.5183 8.08436 41.3793C6.80125 41.2834 6.3438 39.922 6.31445 39.922C6.46108 39.8977 6.60572 39.8626 6.74721 39.8171C6.94923 39.7085 7.19924 39.5956 7.26433 39.2032C7.30188 38.9771 7.23825 37.8201 7.25779 37.5913L9.22736 38.031C9.19954 38.5141 9.00719 39.6344 9.6823 39.8327C9.79454 39.8655 9.91554 39.8956 10.0426 39.9241Z" fill="#E98862"/>
<path opacity="0.5" d="M9.25482 39.3747C9.22395 39.2752 9.20408 39.1726 9.19558 39.0687C9.17395 38.832 9.17826 38.5936 9.20844 38.3578C8.80813 38.3037 8.43101 38.1385 8.1199 37.8809C8.08332 38.0159 7.88221 38.6061 7.93791 38.7344C8.0432 38.9775 8.53785 39.3747 9.25482 39.3747Z" fill="#0C0C0C"/>
<path d="M8.94622 38.9448C8.16617 38.9548 7.19098 38.5612 7.07011 37.5133L6.96107 36.5676C6.84014 35.5197 7.29251 34.6065 8.27917 34.4929C9.26576 34.3791 10.1012 35.1435 10.2221 36.1914L10.2704 36.61C10.3168 37.0123 10.338 38.9272 8.94622 38.9448Z" fill="#E98862"/>
<path d="M9.98756 36.5818C10.0551 36.5818 10.1099 36.527 10.1099 36.4595C10.1099 36.3919 10.0551 36.3372 9.98756 36.3372C9.92 36.3372 9.86523 36.3919 9.86523 36.4595C9.86523 36.527 9.92 36.5818 9.98756 36.5818Z" fill="#0C0C0C"/>
<path d="M8.73731 36.7249C8.80487 36.7249 8.85964 36.6701 8.85964 36.6025C8.85964 36.535 8.80487 36.4802 8.73731 36.4802C8.66976 36.4802 8.61499 36.535 8.61499 36.6025C8.61499 36.6701 8.66976 36.7249 8.73731 36.7249Z" fill="#0C0C0C"/>
<path opacity="0.5" d="M9.35788 37.5338H9.35983C9.39981 37.5289 9.43948 37.5218 9.47868 37.5125C9.53723 37.4983 9.61443 37.4732 9.60838 37.4208C9.60142 37.3611 9.36366 36.7357 9.33654 36.6647C9.33536 36.6616 9.33359 36.6588 9.33133 36.6564C9.32907 36.654 9.32637 36.6521 9.32336 36.6507C9.32036 36.6494 9.31712 36.6487 9.31383 36.6486C9.31055 36.6485 9.30727 36.649 9.3042 36.6502C9.30113 36.6514 9.29831 36.6531 9.29592 36.6554C9.29353 36.6577 9.29161 36.6604 9.29027 36.6634C9.28893 36.6664 9.28819 36.6696 9.2881 36.6729C9.288 36.6762 9.28856 36.6795 9.28973 36.6825C9.3912 36.9488 9.55399 37.3864 9.55858 37.4266C9.49599 37.4619 9.42585 37.4816 9.35406 37.4841C9.34744 37.4846 9.34129 37.4877 9.33697 37.4928C9.33264 37.4978 9.3305 37.5043 9.33101 37.511C9.33151 37.5176 9.33463 37.5237 9.33967 37.5281C9.34471 37.5324 9.35126 37.5345 9.35788 37.534V37.5338Z" fill="#0C0C0C"/>
<path opacity="0.5" d="M9.18142 37.9699C9.34166 37.9607 9.49752 37.9141 9.63643 37.8337C9.6419 37.8303 9.64586 37.8249 9.64748 37.8187C9.64911 37.8124 9.64828 37.8058 9.64516 37.8002C9.64204 37.7946 9.63688 37.7903 9.63074 37.7884C9.6246 37.7865 9.61795 37.787 9.61216 37.7898C9.31216 37.9558 9.02523 37.9654 8.78253 37.8176C8.77763 37.8145 8.77257 37.8116 8.76737 37.809C8.76135 37.8066 8.75467 37.8067 8.7487 37.8092C8.74273 37.8116 8.73794 37.8163 8.73532 37.8222C8.7327 37.8281 8.73245 37.8347 8.73462 37.8408C8.73679 37.8469 8.74122 37.8519 8.74699 37.8548C8.74887 37.8558 8.75207 37.8577 8.75645 37.8604C8.88405 37.9384 9.03203 37.9765 9.18142 37.9699Z" fill="#0C0C0C"/>
<path d="M6.15881 36.8364L7.04289 36.7395C7.72295 36.5199 8.00549 35.3904 8.00549 35.3904C8.00549 35.3904 8.61489 36.0834 10.4208 35.767C10.4208 35.767 10.3508 33.4389 7.60431 33.7666C6.64803 33.8809 5.92695 34.8398 5.91951 36.0938C5.91437 36.9724 6.15881 36.8364 6.15881 36.8364Z" fill="#0A0A0A"/>
<path d="M7.16829 37.8255C6.86842 37.8603 6.58838 37.5674 6.55382 37.2675C6.51925 36.9676 6.74318 36.7743 7.04304 36.7397L7.22072 36.9228L7.42608 37.7957L7.16829 37.8255Z" fill="#E98862"/>
<path d="M9.55501 36.1543C9.64345 36.1054 9.74341 36.0811 9.84445 36.084C9.89434 36.0851 9.94378 36.0937 9.99111 36.1095C10.0381 36.125 10.083 36.1463 10.1247 36.173C10.1289 36.1756 10.1319 36.1798 10.133 36.1846C10.1342 36.1894 10.1335 36.1945 10.131 36.1988C10.1286 36.203 10.1246 36.2062 10.1198 36.2076C10.1151 36.209 10.11 36.2085 10.1056 36.2062L10.1043 36.2055C10.0648 36.1821 10.0225 36.1637 9.97845 36.1508C9.93479 36.1377 9.88939 36.1314 9.84382 36.132C9.75314 36.1324 9.6642 36.1569 9.58603 36.2028L9.58415 36.204C9.58092 36.2061 9.5773 36.2076 9.57349 36.2083C9.56969 36.209 9.56579 36.2089 9.56202 36.208C9.55824 36.2072 9.55468 36.2056 9.55154 36.2033C9.5484 36.2011 9.54575 36.1982 9.54374 36.1949C9.54173 36.1916 9.54041 36.1879 9.53985 36.1841C9.53929 36.1803 9.53951 36.1764 9.54049 36.1726C9.54147 36.1689 9.5432 36.1654 9.54556 36.1623C9.54792 36.1593 9.55088 36.1567 9.55425 36.1548L9.55501 36.1543Z" fill="#0C0C0C"/>
<path d="M8.76257 36.3001C8.67612 36.2727 8.58394 36.2687 8.49546 36.2886C8.4509 36.2984 8.40806 36.3148 8.36841 36.3373C8.32833 36.3597 8.29123 36.3871 8.25797 36.4188L8.25693 36.4197C8.25315 36.4225 8.24847 36.4238 8.24378 36.4234C8.2391 36.423 8.23473 36.4209 8.23151 36.4174C8.22829 36.414 8.22645 36.4095 8.22632 36.4048C8.2262 36.4001 8.22781 36.3955 8.23085 36.3919C8.26552 36.3566 8.30449 36.3258 8.34685 36.3002C8.38947 36.2742 8.43574 36.2548 8.48412 36.2425C8.58197 36.2172 8.68483 36.2186 8.78197 36.2465C8.78573 36.2475 8.78925 36.2492 8.79233 36.2515C8.79541 36.2539 8.79798 36.2568 8.79989 36.2602C8.8018 36.2636 8.80301 36.2673 8.80345 36.2711C8.80388 36.275 8.80354 36.2789 8.80243 36.2826C8.80133 36.2863 8.79949 36.2898 8.79701 36.2928C8.79454 36.2957 8.79149 36.2982 8.78805 36.3C8.78461 36.3018 8.78084 36.3028 8.77698 36.3031C8.77311 36.3034 8.76923 36.3029 8.76556 36.3016H8.7648L8.76257 36.3001Z" fill="#0C0C0C"/>
<path opacity="0.52" d="M9.19815 38.2068C9.22715 38.2056 9.256 38.2019 9.28439 38.1959C9.2907 38.1943 9.29616 38.1904 9.29961 38.1849C9.30307 38.1793 9.30425 38.1727 9.3029 38.1663C9.30156 38.16 9.2978 38.1544 9.29241 38.1507C9.28702 38.1471 9.28043 38.1457 9.27402 38.1468C9.22971 38.1598 9.18313 38.1631 9.13741 38.1566C9.0917 38.1501 9.04789 38.1339 9.00893 38.1092C9.00378 38.105 8.99718 38.103 8.99057 38.1036C8.98395 38.1043 8.97788 38.1076 8.97367 38.1127C8.96947 38.1179 8.96748 38.1245 8.96814 38.1311C8.96881 38.1377 8.97207 38.1438 8.97722 38.148C9.04185 38.1925 9.11992 38.2133 9.19815 38.2068Z" fill="#0C0C0C"/>
<path opacity="0.1" d="M8.56785 37.5532C8.69647 37.5487 8.79807 37.4686 8.79476 37.3743C8.79146 37.2799 8.68451 37.2071 8.55589 37.2116C8.42727 37.2161 8.32568 37.2962 8.32898 37.3906C8.33228 37.4849 8.43923 37.5577 8.56785 37.5532Z" fill="#0C0C0C"/>
<path opacity="0.1" d="M9.9444 37.2928C9.94801 37.387 10.0549 37.4597 10.1836 37.4555C10.2058 37.4547 10.2279 37.4516 10.2495 37.4462C10.2647 37.3355 10.274 37.2286 10.2791 37.1292C10.2445 37.1174 10.2079 37.1122 10.1714 37.1138C10.043 37.1181 9.94148 37.198 9.9444 37.2928Z" fill="#0C0C0C"/>
<path d="M12.8106 41.6045C12.805 42.1616 12.6138 42.8257 12.5456 43.6282C12.5275 43.8424 12.0678 44.462 12.001 45.1512C11.9169 46.0288 12.104 47.3974 12.1291 47.9892C10.8369 48.7042 9.3751 49.0559 7.89905 49.007C6.423 48.958 4.98777 48.5101 3.74579 47.711C3.71241 46.1908 3.67277 44.3139 3.62201 43.864C3.45719 42.3785 3.5017 41.439 3.73953 40.9995C4.12827 40.2819 4.82022 40.0628 5.54415 39.964C5.98643 39.9042 6.65056 39.8618 6.65056 39.8618C6.65056 39.8618 6.70689 41.0002 8.04905 41.0635C9.87592 41.1497 9.75422 39.8618 9.76326 39.8618C10.426 39.8618 11.6819 40.0204 12.1631 40.3486C12.6736 40.6956 12.8168 41.1073 12.8106 41.6045Z" fill="#FFC239"/>
<path d="M6.49911 42.4709L4.02064 47.8796C3.06902 47.3178 2.24105 46.5691 1.58667 45.6786L3.65415 41.1667L6.49911 42.4709Z" fill="#FFC239"/>
<path d="M14.8128 45.5968C14.3272 46.2742 13.7412 46.8736 13.0749 47.3743C12.8556 47.5399 12.6279 47.694 12.3927 47.8361L9.84888 42.2435L12.6973 40.9473L14.8128 45.5968Z" fill="#FFC239"/>
<path d="M25.1711 17.0112C29.8686 17.0112 33.6767 13.2031 33.6767 8.5056C33.6767 3.80809 29.8686 0 25.1711 0C20.4736 0 16.6655 3.80809 16.6655 8.5056C16.6655 13.2031 20.4736 17.0112 25.1711 17.0112Z" fill="white"/>
<path opacity="0.09" d="M25.1711 17.0112C29.8686 17.0112 33.6767 13.2031 33.6767 8.5056C33.6767 3.80809 29.8686 0 25.1711 0C20.4736 0 16.6655 3.80809 16.6655 8.5056C16.6655 13.2031 20.4736 17.0112 25.1711 17.0112Z" fill="#367CFF"/>
<path d="M26.816 3.41231C26.816 3.41231 27.3546 2.82857 27.3129 1.71673C27.2807 0.855875 26.605 1.53968 26.605 1.53968C26.605 1.53968 26.5758 0.920062 26.1461 1.05984C25.7164 1.19962 25.5842 1.88002 25.5842 1.88002" fill="#0C0C0C"/>
<path d="M23.88 1.54321C23.88 1.54321 21.735 2.17361 23.0623 4.99465L23.2582 4.97253L23.6558 4.92775" fill="#0C0C0C"/>
<path d="M26.9198 7.92088C26.91 7.91963 26.8015 9.71923 24.7109 9.56207C23.2636 9.45365 22.7475 7.9181 22.7144 7.9181C22.8704 7.88492 23.0632 7.83465 23.1399 7.81733C23.3069 7.77856 23.4582 7.68986 23.5736 7.56301C23.689 7.43616 23.763 7.27719 23.7859 7.10724C23.8282 6.85216 23.7564 5.54713 23.7785 5.28906L26.0001 5.7849C25.9691 6.33004 25.7518 7.59368 26.5133 7.81733C26.6401 7.8544 26.7766 7.88847 26.9198 7.92088Z" fill="#E98862"/>
<path opacity="0.52" d="M26.0313 7.30093C25.9966 7.18878 25.9741 7.07316 25.9645 6.95614C25.9401 6.68909 25.945 6.42018 25.979 6.15419C25.5275 6.09324 25.1021 5.90685 24.7512 5.61621C24.7099 5.76858 24.483 6.4343 24.5458 6.57909C24.6646 6.85281 25.2225 7.30093 26.0313 7.30093Z" fill="#0C0C0C"/>
<path d="M25.6686 6.72798C24.7924 6.80677 23.6613 6.4487 23.4345 5.28067L23.2298 4.22676C23.0031 3.05846 23.4327 1.99273 24.5324 1.77923C25.6322 1.56567 26.638 2.35295 26.8649 3.52098L26.9553 3.98754C26.9836 4.14827 27.001 4.31075 27.0071 4.47385C27.0268 4.90501 27.0549 5.5603 26.8477 6.04473C26.6521 6.50217 26.2286 6.6777 25.6686 6.72798Z" fill="#E98862"/>
<path opacity="0.5" d="M25.8011 5.57323C25.9616 5.57021 26.1191 5.52953 26.261 5.45446C26.2641 5.45306 26.2669 5.45105 26.2692 5.44856C26.2714 5.44606 26.2732 5.44313 26.2743 5.43994C26.2755 5.43674 26.2759 5.43336 26.2757 5.42998C26.2755 5.4266 26.2746 5.4233 26.2731 5.42028C26.2715 5.41725 26.2694 5.41457 26.2668 5.41239C26.2642 5.41021 26.2612 5.40857 26.258 5.40758C26.2548 5.40659 26.2514 5.40626 26.248 5.40662C26.2446 5.40698 26.2414 5.40802 26.2384 5.40967C25.9324 5.56412 25.6453 5.56266 25.4084 5.40591C25.4036 5.4026 25.3986 5.39954 25.3935 5.39674C25.3906 5.39528 25.3874 5.39443 25.3841 5.39422C25.3808 5.39401 25.3775 5.39444 25.3744 5.39551C25.3713 5.39657 25.3684 5.39823 25.3659 5.40041C25.3635 5.40258 25.3614 5.40522 25.36 5.40818C25.3585 5.41113 25.3577 5.41434 25.3575 5.41763C25.3573 5.42091 25.3577 5.42421 25.3588 5.42732C25.3598 5.43044 25.3615 5.43331 25.3637 5.43579C25.3658 5.43826 25.3685 5.44028 25.3714 5.44173C25.3733 5.44277 25.3764 5.44486 25.3807 5.44771C25.5052 5.53047 25.6516 5.57418 25.8011 5.57323Z" fill="#0C0C0C"/>
<path opacity="0.52" d="M25.8088 5.81096C25.8378 5.81088 25.8668 5.80832 25.8954 5.80331C25.8986 5.80276 25.9017 5.80157 25.9045 5.79982C25.9073 5.79807 25.9097 5.79579 25.9116 5.79311C25.9135 5.79042 25.9149 5.78739 25.9156 5.78419C25.9163 5.78098 25.9164 5.77766 25.9159 5.77442C25.9153 5.77118 25.9141 5.76807 25.9124 5.76529C25.9106 5.76251 25.9083 5.76009 25.9057 5.75819C25.903 5.75629 25.8999 5.75494 25.8967 5.75421C25.8935 5.75348 25.8902 5.75339 25.887 5.75394C25.8422 5.76516 25.7955 5.76671 25.7501 5.75848C25.7046 5.75025 25.6615 5.73244 25.6235 5.70623C25.6185 5.702 25.612 5.6999 25.6055 5.70038C25.5989 5.70086 25.5929 5.70388 25.5885 5.7088C25.5842 5.71371 25.582 5.72013 25.5823 5.72667C25.5827 5.73321 25.5855 5.73935 25.5904 5.74378C25.6532 5.79077 25.7304 5.81451 25.8088 5.81096Z" fill="#0C0C0C"/>
<path d="M26.6018 4.28192C26.678 4.28192 26.7398 4.22015 26.7398 4.14395C26.7398 4.06775 26.678 4.00598 26.6018 4.00598C26.5256 4.00598 26.4639 4.06775 26.4639 4.14395C26.4639 4.22015 26.5256 4.28192 26.6018 4.28192Z" fill="#0C0C0C"/>
<path d="M25.26 4.43866C25.3362 4.43866 25.398 4.37689 25.398 4.30069C25.398 4.22449 25.3362 4.16272 25.26 4.16272C25.1838 4.16272 25.1221 4.22449 25.1221 4.30069C25.1221 4.37689 25.1838 4.43866 25.26 4.43866Z" fill="#0C0C0C"/>
<path d="M23.5721 5.62332C23.2379 5.68821 22.8975 5.38327 22.8326 5.04905C22.7676 4.71483 23.0029 4.47797 23.337 4.41309L23.5526 4.60356L23.8593 5.56755L23.5721 5.62332Z" fill="#E98862"/>
<path d="M23.8078 5.02465C23.8078 5.02465 23.6211 3.34765 24.1049 3.15446C24.427 3.02574 25.3242 3.35342 26.0497 3.07414C26.3671 2.95189 26.694 2.97678 26.7538 3.12637C26.7775 3.18555 26.8224 2.26488 26.1862 1.68747C25.6796 1.2278 24.311 1.31981 23.7325 1.60535C22.1304 2.39597 23.2811 4.49829 23.2811 4.49829L23.4598 5.05574L23.8078 5.02465Z" fill="#0C0C0C"/>
<g opacity="0.52">
<path d="M26.0068 5.15799H26.0089C26.1167 5.13713 26.2952 5.09074 26.2801 5.01014C26.2673 4.94331 25.9463 4.25735 25.9099 4.17939C25.9083 4.17607 25.9061 4.17309 25.9034 4.17062C25.9007 4.16815 25.8975 4.16624 25.8941 4.16499C25.8907 4.16375 25.887 4.16319 25.8833 4.16336C25.8797 4.16353 25.8761 4.16442 25.8728 4.16597C25.8694 4.16753 25.8665 4.16973 25.864 4.17243C25.8615 4.17514 25.8596 4.17831 25.8584 4.18176C25.8571 4.18521 25.8566 4.18887 25.8567 4.19253C25.8569 4.19619 25.8578 4.19979 25.8593 4.20311C26.0016 4.50687 26.2165 4.97502 26.2253 5.02057C26.2183 5.04144 26.1104 5.0817 25.9988 5.10305C25.9915 5.10415 25.9848 5.10813 25.9804 5.11412C25.9759 5.12012 25.9741 5.12763 25.9752 5.135C25.9763 5.14238 25.9802 5.14902 25.9862 5.15346C25.9922 5.1579 25.9997 5.15978 26.0071 5.15868L26.0068 5.15799Z" fill="#0C0C0C"/>
</g>
<path d="M26.0832 3.47714C26.191 3.42543 26.3108 3.40381 26.4299 3.41455C26.4883 3.41947 26.5457 3.43311 26.6001 3.45502C26.6538 3.47637 26.7046 3.50441 26.7513 3.53847C26.7599 3.54446 26.7659 3.55358 26.768 3.56391C26.7701 3.57424 26.7681 3.58498 26.7624 3.59385C26.7567 3.60273 26.7478 3.60905 26.7376 3.6115C26.7273 3.61395 26.7165 3.61232 26.7074 3.60697L26.7043 3.60586C26.662 3.57883 26.6164 3.55721 26.5687 3.54153C26.5218 3.52587 26.4728 3.5174 26.4233 3.51643C26.3258 3.51371 26.2293 3.53681 26.1436 3.5834L26.14 3.58541C26.1331 3.58939 26.1254 3.59196 26.1174 3.59297C26.1095 3.59398 26.1014 3.59342 26.0936 3.5913C26.0859 3.58919 26.0786 3.58557 26.0723 3.58065C26.0659 3.57573 26.0606 3.56961 26.0566 3.56264C26.0526 3.55566 26.0501 3.54798 26.0491 3.54001C26.0481 3.53204 26.0486 3.52396 26.0507 3.51621C26.0529 3.50847 26.0565 3.50121 26.0614 3.49487C26.0663 3.48852 26.0724 3.4832 26.0794 3.47922L26.0832 3.47714Z" fill="#0C0C0C"/>
<path d="M25.2921 3.69087C25.1982 3.66458 25.099 3.66355 25.0045 3.68788C24.9565 3.69982 24.9106 3.71897 24.8684 3.74469C24.8253 3.77058 24.7855 3.80177 24.7502 3.83753L24.7479 3.83975C24.7403 3.84713 24.7301 3.85124 24.7195 3.85121C24.7089 3.85117 24.6987 3.847 24.6912 3.83957C24.6836 3.83214 24.6792 3.82205 24.679 3.81145C24.6787 3.80084 24.6826 3.79056 24.6899 3.7828C24.7277 3.73911 24.771 3.70039 24.8186 3.66757C24.8668 3.63409 24.9197 3.608 24.9755 3.59017C25.0314 3.57175 25.0895 3.56108 25.1483 3.55846C25.2085 3.55515 25.2688 3.56039 25.3275 3.57404C25.3433 3.57772 25.357 3.58753 25.3655 3.60131C25.3741 3.61508 25.3768 3.63168 25.3731 3.64747C25.3694 3.66326 25.3596 3.67693 25.3458 3.68549C25.3321 3.69405 25.3155 3.69678 25.2997 3.69309L25.2961 3.69212L25.2921 3.69087Z" fill="#0C0C0C"/>
<path d="M25.7151 2.36608C25.9537 2.26941 26.0317 1.90637 25.8894 1.55523C25.7471 1.20408 25.4383 0.997799 25.1998 1.09448C24.9612 1.19116 24.8832 1.55419 25.0255 1.90533C25.1678 2.25648 25.4765 2.46276 25.7151 2.36608Z" fill="#0C0C0C"/>
<path d="M29.8091 9.78055C29.8175 10.3571 29.5922 11.0052 29.517 11.8828C29.5018 12.0608 29.4656 12.453 29.4176 12.9642C29.339 13.8105 29.2278 14.9809 29.1304 16.0358C27.7381 16.7666 26.1706 17.0977 24.6017 16.9924C23.0328 16.8871 21.5237 16.3495 20.2415 15.4392C20.2109 15.4162 20.1803 15.394 20.1497 15.3724C20.0684 14.1798 19.9724 12.928 19.8848 12.1373C19.72 10.661 19.4954 9.92589 19.6212 9.42936C19.6313 9.38708 19.6448 9.34569 19.6616 9.30558C20.0239 8.42657 21.1776 8.03435 21.9592 7.92865C22.4363 7.86398 23.154 7.81738 23.154 7.81738C23.154 7.81738 23.2145 9.04688 24.663 9.11504C26.6352 9.20822 26.5038 7.81738 26.5135 7.81738C26.8327 7.81738 28.572 8.04965 29.0066 8.33338C29.0795 8.38069 29.1492 8.43272 29.2152 8.48916C29.4041 8.64666 29.5554 8.84432 29.6581 9.06774C29.7609 9.29115 29.8125 9.53467 29.8091 9.78055Z" fill="#383838"/>
<path d="M22.5476 10.672L20.2416 15.4391C20.211 15.4162 20.1804 15.3939 20.1498 15.3724C19.2558 14.7169 18.4977 13.8941 17.9175 12.9495L19.6213 9.42933L19.6887 9.28955L22.5476 10.672Z" fill="#383838"/>
<path d="M22.3252 11.2208L20.2278 15.4287C20.2139 15.4183 20.2007 15.4086 20.1868 15.3995L22.2814 11.1992C22.2844 11.1934 22.2896 11.1889 22.2958 11.1868C22.302 11.1848 22.3088 11.1852 22.3148 11.1881C22.3205 11.191 22.3248 11.1961 22.3267 11.2023C22.3287 11.2084 22.3281 11.215 22.3252 11.2208Z" fill="white"/>
<path d="M32.9595 11.93C32.5415 12.8774 31.9545 13.7409 31.2272 14.478L29.4177 12.9641L27.1194 11.0406L29.2154 8.48909L29.2216 8.48145L32.9595 11.93Z" fill="#383838"/>
<path d="M29.4455 12.9827C29.4514 12.9824 29.457 12.98 29.4613 12.9759C29.4655 12.9718 29.4682 12.9663 29.4687 12.9604L29.5881 11.5605C29.5887 11.554 29.5866 11.5476 29.5824 11.5426C29.5783 11.5377 29.5723 11.5346 29.5658 11.534C29.5594 11.5335 29.553 11.5356 29.5481 11.5398C29.5432 11.5439 29.54 11.5498 29.5394 11.5563L29.42 12.9562C29.4195 12.9627 29.4215 12.9691 29.4257 12.974C29.4298 12.979 29.4358 12.9821 29.4423 12.9826L29.4455 12.9827Z" fill="white"/>
<path d="M65.2222 53.843C69.7026 53.843 73.3347 50.2109 73.3347 45.7305C73.3347 41.25 69.7026 37.6179 65.2222 37.6179C60.7417 37.6179 57.1096 41.25 57.1096 45.7305C57.1096 50.2109 60.7417 53.843 65.2222 53.843Z" fill="white"/>
<path opacity="0.09" d="M57.1092 45.7301C57.1092 47.3346 57.5849 48.903 58.4763 50.2371C59.3677 51.5712 60.6347 52.611 62.1171 53.225C63.5994 53.839 65.2306 53.9997 66.8042 53.6867C68.3779 53.3737 69.8234 52.6011 70.9579 51.4665C72.0925 50.332 72.8651 48.8865 73.1781 47.3128C73.4912 45.7392 73.3305 44.108 72.7165 42.6257C72.1025 41.1433 71.0627 39.8763 69.7286 38.9849C68.3945 38.0935 66.8261 37.6177 65.2216 37.6177C64.1552 37.6138 63.0985 37.821 62.1125 38.2273C61.1265 38.6335 60.2306 39.2309 59.4765 39.985C58.7224 40.7391 58.125 41.635 57.7187 42.621C57.3124 43.607 57.1053 44.6636 57.1092 45.7301Z" fill="#367CFF"/>
<path d="M68.9029 41.2535C68.7733 42.7556 68.8934 43.2649 69.5171 44.1256C70.0432 44.8512 67.0499 44.2344 65.7256 43.9985L66.8942 40.5828C66.8942 40.5828 68.9484 40.726 68.9029 41.2535Z" fill="#0A0A0A"/>
<path d="M64.3336 40.6285C63.9428 42.0846 63.9867 42.5351 63.222 43.2998C62.5883 43.9336 65.0583 44.0625 66.3836 44.2927L66.4506 40.6835C66.4506 40.6835 64.4708 40.1172 64.3336 40.6285Z" fill="#0A0A0A"/>
<path d="M64.4653 44.8638C64.474 44.8626 64.5711 46.473 66.4419 46.3326C67.7369 46.2356 68.1987 44.8615 68.2284 44.8615C68.0804 44.8369 67.9344 44.8015 67.7916 44.7556C67.5877 44.646 67.3353 44.5319 67.2696 44.1359C67.2317 43.9076 67.296 42.7399 67.2762 42.5087L65.2882 42.9524C65.316 43.4402 65.5108 44.5709 64.8292 44.771C64.7157 44.8044 64.5935 44.8348 64.4653 44.8638Z" fill="#E98862"/>
<path opacity="0.5" d="M65.2603 44.3092C65.2914 44.2088 65.3115 44.1053 65.3201 44.0006C65.3419 43.7617 65.3376 43.521 65.3071 43.283C65.7112 43.2285 66.0919 43.0617 66.4059 42.8016C66.4428 42.938 66.6458 43.5336 66.5896 43.6632C66.4833 43.9081 65.984 44.3092 65.2603 44.3092Z" fill="#0C0C0C"/>
<path d="M65.5175 43.8076C66.3013 43.8834 67.3153 43.5699 67.5254 42.5261L67.715 41.5843C67.9251 40.5406 67.5471 39.5841 66.5644 39.3863C65.5816 39.1885 64.6768 39.887 64.4667 40.9305L64.3828 41.3478C64.3022 41.748 64.119 43.6724 65.5175 43.8076Z" fill="#E98862"/>
<path d="M68.6634 41.8816L67.7793 41.7847C66.0494 41.4666 65.6257 40.0707 65.6257 40.0707C65.6257 40.0707 64.9001 41.0395 64.2839 40.817C64.2839 40.817 64.4825 38.481 67.2178 38.8915C68.2925 39.0528 68.9027 39.9437 68.9027 41.1387C68.9027 42.0172 68.6634 41.8816 68.6634 41.8816Z" fill="#0A0A0A"/>
<path opacity="0.1" d="M66.2692 42.2959C66.2805 42.2013 66.1851 42.1121 66.0562 42.0967C65.9272 42.0813 65.8135 42.1456 65.8022 42.2402C65.7909 42.3348 65.8863 42.424 66.0153 42.4394C66.1443 42.4548 66.258 42.3905 66.2692 42.2959Z" fill="#0C0C0C"/>
<path opacity="0.1" d="M64.653 42.0615C64.6415 42.1559 64.5278 42.2201 64.3988 42.2049C64.3765 42.2022 64.3545 42.1972 64.3332 42.19C64.3273 42.0774 64.3269 41.969 64.3302 41.8687C64.366 41.8598 64.4032 41.8576 64.4398 41.8623C64.5684 41.8775 64.6638 41.9667 64.653 42.0615Z" fill="#0C0C0C"/>
<path opacity="0.5" d="M65.2227 42.3535H65.2207C65.1809 42.3452 65.1416 42.3347 65.103 42.3221C65.0453 42.3027 64.9697 42.2711 64.9802 42.2189C64.9922 42.1594 65.2843 41.5505 65.3175 41.4813C65.3189 41.4782 65.3209 41.4754 65.3233 41.4731C65.3258 41.4708 65.3287 41.469 65.3319 41.4679C65.3351 41.4667 65.3385 41.4662 65.3418 41.4663C65.3452 41.4665 65.3485 41.4673 65.3516 41.4688C65.3546 41.4703 65.3574 41.4723 65.3596 41.4749C65.3618 41.4774 65.3636 41.4804 65.3646 41.4836C65.3657 41.4868 65.3661 41.4902 65.3659 41.4935C65.3656 41.4969 65.3647 41.5002 65.3631 41.5032C65.2385 41.7625 65.0379 42.1888 65.0298 42.2289C65.0898 42.2696 65.1587 42.2953 65.2307 42.3039C65.237 42.3053 65.2426 42.309 65.2463 42.3144C65.25 42.3197 65.2515 42.3263 65.2504 42.3327C65.2494 42.3391 65.246 42.3449 65.2408 42.3488C65.2356 42.3528 65.2291 42.3546 65.2227 42.3539V42.3535Z" fill="#0C0C0C"/>
<path d="M67.4003 42.8318C67.699 42.8918 68.0053 42.6211 68.0655 42.3224C68.1256 42.0238 67.9167 41.8103 67.618 41.7502L67.4238 41.9194L67.1436 42.7801L67.4003 42.8318Z" fill="#E98862"/>
<path d="M65.1058 40.9955C65.0689 40.9694 65.0287 40.9483 64.9863 40.9329C64.9433 40.9168 64.8982 40.9066 64.8525 40.9028C64.8067 40.8984 64.7605 40.901 64.7155 40.9104C64.6701 40.9196 64.626 40.9345 64.5843 40.9548L64.583 40.9554C64.5785 40.957 64.5735 40.9569 64.5691 40.955C64.5646 40.9532 64.561 40.9498 64.559 40.9454C64.5569 40.9411 64.5566 40.9362 64.558 40.9316C64.5593 40.927 64.5624 40.9231 64.5665 40.9206C64.6107 40.8973 64.6576 40.8796 64.7062 40.8679C64.7552 40.856 64.8057 40.8516 64.8559 40.8547C64.9578 40.8604 65.0562 40.8933 65.1411 40.9499C65.1472 40.9544 65.1514 40.961 65.1527 40.9685C65.154 40.9759 65.1524 40.9836 65.1481 40.9899C65.1438 40.9961 65.1373 41.0005 65.1299 41.002C65.1225 41.0035 65.1148 41.0021 65.1084 40.998L65.1077 40.9975L65.1058 40.9955Z" fill="#0C0C0C"/>
<path d="M65.9107 41.1068C66.0107 41.0869 66.1142 41.0942 66.2104 41.128C66.2581 41.1443 66.303 41.1678 66.3437 41.1975C66.3842 41.2268 66.4208 41.2611 66.4527 41.2995C66.4561 41.3033 66.4579 41.3083 66.4577 41.3135C66.4575 41.3186 66.4552 41.3234 66.4514 41.3269C66.4476 41.3303 66.4426 41.3321 66.4375 41.3319C66.4324 41.3317 66.4275 41.3294 66.4241 41.3256L66.423 41.3246C66.3922 41.2899 66.3572 41.2593 66.3187 41.2333C66.2807 41.2074 66.239 41.1874 66.195 41.1739C66.1077 41.1465 66.0147 41.1427 65.9254 41.1629L65.9232 41.1635C65.9157 41.1653 65.9078 41.1641 65.9012 41.1601C65.8946 41.1561 65.8899 41.1497 65.8881 41.1422C65.8862 41.1347 65.8874 41.1268 65.8914 41.1202C65.8954 41.1136 65.9018 41.1088 65.9093 41.107L65.9107 41.1068Z" fill="#0C0C0C"/>
<path d="M61.4524 52.9151C61.1335 52.776 60.8949 52.6272 60.3503 52.2169C59.9573 51.922 59.5921 51.5917 59.2593 51.2303L62.0556 45.9094L62.1771 45.6782L64.6993 47.0042L62.5115 51.1677L62.5014 51.186L62.5204 51.2601" fill="#EA394A"/>
<path d="M70.7519 48.6348C70.6785 49.4238 70.6626 50.6509 70.6677 51.742C69.6133 52.6983 68.3257 53.3603 66.9344 53.6612C65.543 53.9621 64.097 53.8913 62.7416 53.4561C62.5758 51.8107 62.3291 49.3928 62.1901 47.904C62.0492 46.3619 61.6349 45.8525 62.7657 45.114C63.3888 44.7968 64.3766 44.7689 64.8205 44.7689C64.6698 46.2307 67.7505 46.4106 67.827 44.7689C70.1312 44.9844 71.1979 45.0379 70.7519 48.6348Z" fill="#EA394A"/>
<path d="M64.96 42.5592C65.2146 42.6887 65.5052 42.7296 65.7857 42.6755C65.7954 42.6737 65.8055 42.6747 65.8147 42.6783C65.8239 42.682 65.8319 42.6882 65.8377 42.6962C65.8434 42.7043 65.8468 42.7138 65.8474 42.7236C65.848 42.7335 65.8457 42.7434 65.8409 42.752C65.7575 42.8994 65.5589 43.1513 65.2186 43.0487C64.9989 42.9824 64.9158 42.7566 64.8848 42.6165C64.8826 42.6068 64.8833 42.5967 64.8867 42.5873C64.8901 42.578 64.8961 42.5698 64.904 42.5638C64.9119 42.5577 64.9214 42.5541 64.9313 42.5533C64.9413 42.5525 64.9512 42.5545 64.96 42.5592Z" fill="white"/>
<path d="M64.9441 41.4267C65.012 41.4267 65.0671 41.3716 65.0671 41.3037C65.0671 41.2357 65.012 41.1807 64.9441 41.1807C64.8761 41.1807 64.821 41.2357 64.821 41.3037C64.821 41.3716 64.8761 41.4267 64.9441 41.4267Z" fill="#0C0C0C"/>
<path d="M66.1264 41.6336C66.1944 41.6336 66.2495 41.5785 66.2495 41.5106C66.2495 41.4426 66.1944 41.3876 66.1264 41.3876C66.0585 41.3876 66.0034 41.4426 66.0034 41.5106C66.0034 41.5785 66.0585 41.6336 66.1264 41.6336Z" fill="#0C0C0C"/>
<path d="M62.4626 50.5599H62.465C62.47 50.5591 62.4745 50.5565 62.4775 50.5525C62.4805 50.5484 62.4819 50.5434 62.4812 50.5384L62.2636 48.3469C62.2634 48.3444 62.2626 48.342 62.2613 48.3398C62.2601 48.3376 62.2584 48.3357 62.2564 48.3342C62.2544 48.3327 62.2521 48.3316 62.2497 48.331C62.2472 48.3304 62.2447 48.3303 62.2422 48.3307C62.2397 48.331 62.2374 48.3318 62.2352 48.3331C62.2331 48.3344 62.2312 48.336 62.2297 48.338C62.2282 48.34 62.2271 48.3423 62.2264 48.3447C62.2258 48.3471 62.2257 48.3496 62.226 48.3521L62.4435 50.5436C62.4442 50.5482 62.4465 50.5524 62.45 50.5553C62.4535 50.5583 62.458 50.5599 62.4626 50.5599Z" fill="#0C0C0C"/>
<path d="M62.1782 48.8909H59.9578V51.6141H62.1782V48.8909Z" fill="white"/>
<path d="M61.2688 50.2525C61.2688 50.0727 61.3222 49.8969 61.4222 49.7474C61.5221 49.5978 61.6641 49.4813 61.8303 49.4125C61.9965 49.3437 62.1793 49.3258 62.3557 49.3609C62.5321 49.396 62.6941 49.4826 62.8212 49.6098C62.9484 49.737 63.0349 49.899 63.07 50.0754C63.1051 50.2518 63.087 50.4347 63.0182 50.6008C62.9494 50.7669 62.8328 50.9089 62.6833 51.0088C62.5337 51.1087 62.3579 51.1621 62.1781 51.162C61.9369 51.1618 61.7058 51.0658 61.5353 50.8953C61.3649 50.7248 61.269 50.4936 61.2688 50.2525ZM61.6412 50.2525C61.6412 50.3587 61.6727 50.4625 61.7317 50.5508C61.7907 50.6391 61.8745 50.7079 61.9726 50.7485C62.0707 50.7891 62.1787 50.7998 62.2828 50.7791C62.3869 50.7583 62.4826 50.7072 62.5577 50.6321C62.6328 50.557 62.6839 50.4614 62.7046 50.3572C62.7253 50.2531 62.7147 50.1452 62.6741 50.0471C62.6334 49.949 62.5646 49.8651 62.4763 49.8061C62.388 49.7471 62.2842 49.7156 62.1781 49.7156C62.0357 49.7158 61.8993 49.7724 61.7986 49.8731C61.698 49.9737 61.6414 50.1102 61.6412 50.2525Z" fill="white"/>
<path d="M62.1606 50.5894C62.1681 50.5434 62.1915 50.5014 62.2268 50.4709C62.2621 50.4403 62.307 50.4232 62.3537 50.4225C62.3524 50.4207 62.3515 50.4186 62.351 50.4163L62.2849 50.402C62.2388 50.3929 62.1972 50.3681 62.1673 50.3319C62.1374 50.2957 62.1209 50.2502 62.1206 50.2033C62.121 50.1738 62.128 50.1448 62.141 50.1183C62.154 50.0919 62.1727 50.0687 62.1958 50.0503C62.2188 50.032 62.2457 50.019 62.2744 50.0123C62.3031 50.0056 62.3329 50.0053 62.3617 50.0115L62.5177 50.0452C62.5177 50.0446 62.5177 50.0441 62.5177 50.0435C62.518 50.0422 62.5185 50.041 62.5191 50.0398C62.4784 50.0207 62.4455 49.9884 62.4255 49.9482C62.4056 49.9079 62.3999 49.8621 62.4093 49.8182C62.4264 49.7028 62.5648 49.6649 62.6662 49.6868L63.0703 49.7591L62.9339 49.6687C62.8909 49.6389 62.8608 49.5939 62.8497 49.5427C62.8385 49.4916 62.8473 49.4381 62.874 49.3932C62.8887 49.3704 62.9078 49.3509 62.9302 49.3358C62.9526 49.3207 62.9778 49.3104 63.0044 49.3053C63.031 49.3003 63.0583 49.3008 63.0846 49.3066C63.111 49.3125 63.1359 49.3237 63.1578 49.3396L64.7864 51.2033L64.4248 51.0392C64.3126 51.2043 64.1536 51.3321 63.9683 51.4062C63.783 51.4803 63.5797 51.4974 63.3846 51.4552L62.5014 51.2627C62.4553 51.2536 62.4138 51.2289 62.3838 51.1927C62.3539 51.1564 62.3374 51.111 62.3371 51.064C62.3377 51.0216 62.3519 50.9805 62.3776 50.9467C62.4032 50.913 62.4389 50.8883 62.4796 50.8762C62.4783 50.8732 62.4778 50.87 62.4783 50.8668C62.4787 50.8637 62.48 50.8609 62.4818 50.8584C62.4837 50.856 62.4862 50.8541 62.489 50.8529L62.326 50.8177C62.2746 50.8077 62.229 50.7785 62.1983 50.7362C62.1676 50.6938 62.1541 50.6413 62.1606 50.5894Z" fill="#E98862"/>
<path opacity="0.2" d="M62.8127 50.1109C62.8169 50.11 62.8207 50.1076 62.8234 50.1042C62.8261 50.1008 62.8275 50.0966 62.8275 50.0922C62.8274 50.0879 62.8258 50.0837 62.823 50.0804C62.8201 50.0771 62.8162 50.0749 62.812 50.0742L62.5392 50.028C62.5367 50.0275 62.5342 50.0275 62.5317 50.0279C62.5292 50.0284 62.5269 50.0294 62.5248 50.0308C62.5227 50.0322 62.5209 50.0341 62.5196 50.0362C62.5182 50.0383 62.5173 50.0407 62.5169 50.0432C62.5164 50.0456 62.5165 50.0482 62.5171 50.0506C62.5177 50.0531 62.5188 50.0554 62.5203 50.0574C62.5218 50.0594 62.5237 50.0611 62.5258 50.0624C62.528 50.0637 62.5304 50.0645 62.5329 50.0648L62.8057 50.111C62.808 50.1114 62.8104 50.1114 62.8127 50.1109Z" fill="#0C0C0C"/>
<path opacity="0.2" d="M62.7468 50.4968C62.7511 50.4959 62.7549 50.4935 62.7576 50.4902C62.7603 50.4868 62.7617 50.4825 62.7617 50.4782C62.7616 50.4739 62.76 50.4697 62.7572 50.4664C62.7544 50.4631 62.7505 50.4608 62.7462 50.4601L62.3725 50.3938C62.3701 50.3932 62.3675 50.3932 62.365 50.3936C62.3625 50.3941 62.3601 50.395 62.358 50.3964C62.3559 50.3978 62.3541 50.3996 62.3527 50.4017C62.3513 50.4039 62.3503 50.4062 62.3499 50.4087C62.3495 50.4112 62.3495 50.4138 62.3501 50.4163C62.3507 50.4187 62.3518 50.4211 62.3533 50.4231C62.3548 50.4252 62.3567 50.4269 62.3589 50.4282C62.361 50.4294 62.3635 50.4303 62.366 50.4306L62.7397 50.4969C62.7421 50.4973 62.7445 50.4973 62.7468 50.4968Z" fill="#0C0C0C"/>
<path opacity="0.2" d="M62.6783 50.9151C62.6826 50.9142 62.6864 50.9118 62.6891 50.9083C62.6918 50.9049 62.6932 50.9006 62.6931 50.8962C62.693 50.8919 62.6913 50.8877 62.6884 50.8844C62.6855 50.8811 62.6816 50.8789 62.6772 50.8783L62.5 50.8512C62.4952 50.8507 62.4905 50.8521 62.4867 50.855C62.4829 50.858 62.4804 50.8622 62.4797 50.867C62.479 50.8717 62.4801 50.8765 62.4828 50.8804C62.4855 50.8844 62.4897 50.8871 62.4943 50.8881L62.6716 50.9153C62.6738 50.9156 62.6761 50.9156 62.6783 50.9151Z" fill="#0C0C0C"/>
<path d="M71.8832 50.3591C70.884 51.796 69.4481 52.8723 67.7887 53.4283L67.7881 53.4277C67.4195 53.3556 63.9036 51.9673 63.4385 51.8762L63.9474 49.5021C65.2541 49.7621 67.6373 50.7645 68.9514 51.0255L68.0243 46.8219C67.9907 46.6362 67.9943 46.4457 68.0349 46.2614C68.0755 46.0771 68.1522 45.9027 68.2607 45.7484C68.3692 45.594 68.5073 45.4627 68.6669 45.362C68.8266 45.2614 69.0046 45.1935 69.1907 45.1622C69.3767 45.1309 69.5672 45.1369 69.7509 45.1797C69.9347 45.2226 70.1081 45.3015 70.2612 45.4119C70.4142 45.5223 70.5438 45.662 70.6424 45.8228C70.7411 45.9837 70.8068 46.1625 70.8358 46.349L71.8832 50.3591Z" fill="#EA394A"/>
<path d="M69.9475 51.3348C69.9522 51.3347 69.9567 51.3329 69.9602 51.3296C69.9636 51.3264 69.9657 51.3219 69.9661 51.3172C69.9664 51.3125 69.965 51.3078 69.9621 51.304C69.9592 51.3003 69.955 51.2978 69.9503 51.297L68.9623 50.9618C68.9598 50.9614 68.9573 50.9615 68.9548 50.9621C68.9524 50.9627 68.9501 50.9637 68.9481 50.9652C68.9461 50.9667 68.9444 50.9686 68.9431 50.9708C68.9418 50.9729 68.941 50.9753 68.9406 50.9778C68.9399 50.9828 68.9412 50.9878 68.9442 50.9919C68.9472 50.9959 68.9516 50.9986 68.9566 50.9993L69.9447 51.3345C69.9456 51.3347 69.9465 51.3348 69.9475 51.3348Z" fill="#0C0C0C"/>
<path d="M68.9774 50.9779C68.9779 50.9839 68.9761 50.9898 68.9723 50.9944C68.9701 50.9965 68.9675 50.998 68.9646 50.9989C68.9618 50.9997 68.9588 51 68.9558 50.9995L63.979 49.5305L63.4802 51.8671L67.7659 53.4352C67.7526 53.4396 67.7386 53.444 67.7253 53.4485C67.7158 53.4517 67.7064 53.4548 67.6962 53.4574L63.4523 51.8991C63.4475 51.8978 63.4434 51.8947 63.4408 51.8905C63.4382 51.8863 63.4374 51.8812 63.4384 51.8763L63.9473 49.5022C63.9479 49.4998 63.949 49.4976 63.9506 49.4956C63.9521 49.4936 63.954 49.492 63.9562 49.4908C63.9583 49.4894 63.9607 49.4884 63.9632 49.4879C63.9657 49.4875 63.9683 49.4876 63.9708 49.4883L68.9356 50.9591L68.3735 48.6417C68.3729 48.6368 68.3741 48.6318 68.3771 48.6277C68.3801 48.6237 68.3845 48.621 68.3894 48.6202C68.3918 48.6197 68.3944 48.6198 68.3968 48.6203C68.3993 48.6208 68.4016 48.6217 68.4037 48.6232C68.4057 48.6246 68.4075 48.6264 68.4088 48.6285C68.4102 48.6306 68.4111 48.6329 68.4116 48.6354L68.9774 50.9779Z" fill="#0C0C0C"/>
<path d="M4.07971 47.9497C4.07508 47.9497 4.07049 47.9487 4.06622 47.947C4.06201 47.9452 4.05818 47.9426 4.05497 47.9394C4.05176 47.9361 4.04922 47.9323 4.04749 47.928C4.04577 47.9238 4.0449 47.9193 4.04492 47.9147C4.04495 47.9101 4.04588 47.9056 4.04765 47.9014L5.41025 44.6626C5.41384 44.6541 5.42066 44.6474 5.42921 44.6439C5.43776 44.6404 5.44734 44.6405 5.45584 44.6441C5.46434 44.6477 5.47107 44.6545 5.47455 44.663C5.47802 44.6716 5.47796 44.6812 5.47437 44.6897L4.11177 47.9283C4.10912 47.9346 4.10467 47.94 4.09896 47.9438C4.09326 47.9476 4.08656 47.9497 4.07971 47.9497Z" fill="#0C0C0C"/>
<path d="M12.0979 47.9864H12.0964C12.0918 47.9866 12.0873 47.9859 12.083 47.9843C12.0787 47.9828 12.0747 47.9804 12.0714 47.9773C12.068 47.9742 12.0653 47.9705 12.0633 47.9664C12.0614 47.9623 12.0603 47.9578 12.0601 47.9532L11.9082 44.6407C11.9081 44.6315 11.9114 44.6227 11.9176 44.6159C11.9237 44.6092 11.9322 44.605 11.9413 44.6043C11.9459 44.6041 11.9504 44.6048 11.9547 44.6063C11.959 44.6079 11.963 44.6103 11.9664 44.6133C11.9698 44.6164 11.9725 44.6201 11.9744 44.6243C11.9764 44.6284 11.9775 44.6329 11.9777 44.6375L12.1296 47.95C12.13 47.959 12.127 47.9678 12.1211 47.9746C12.1152 47.9814 12.1069 47.9856 12.0979 47.9864Z" fill="#0C0C0C"/>
</g>
<defs>
<clipPath id="clip0_104_744">
<rect width="77.562" height="53.8429" fill="white"/>
</clipPath>
</defs>
</svg>
