<svg width="276" height="177" viewBox="0 0 276 177" fill="none" xmlns="http://www.w3.org/2000/svg">
<g clip-path="url(#clip0_46_307)">
<path d="M174.767 116.279C173.891 116.272 173.018 116.18 172.161 116.001C166.202 114.807 162.167 109.35 160.494 100.227C159.729 95.7629 159.481 91.2257 159.755 86.705L160.078 86.7308C160.057 86.992 158.129 112.858 172.226 115.685C179.019 117.047 181.327 113.114 183.558 109.31C185.984 105.173 188.276 101.266 196.059 105.11L195.916 105.4C188.403 101.689 186.286 105.297 183.837 109.474C181.948 112.69 179.844 116.279 174.767 116.279Z" fill="#C1D8ED"/>
<path d="M98.4782 117.982C97.1128 117.982 95.5969 117.405 93.9461 116.253C85.549 110.397 79.5547 115.904 79.4953 115.961L79.2735 115.726C79.3345 115.668 85.5125 109.979 94.1308 115.989C96.632 117.732 98.7897 118.111 100.546 117.114C105.796 114.133 106.718 99.7608 105.83 87.3043L106.153 87.2814C107.047 99.8357 106.086 114.339 100.706 117.395C100.028 117.783 99.2595 117.986 98.4782 117.982Z" fill="#C1D8ED"/>
<path d="M193.381 -0.00012207H74.7672C72.4889 -0.00012207 70.642 1.84682 70.642 4.12513V88.556C70.642 90.8343 72.4889 92.6813 74.7672 92.6813H193.381C195.659 92.6813 197.506 90.8343 197.506 88.556V4.12513C197.506 1.84682 195.659 -0.00012207 193.381 -0.00012207Z" fill="#C1D8ED"/>
<path d="M191.144 -0.00012207H72.5307C70.2524 -0.00012207 68.4055 1.84682 68.4055 4.12513V88.556C68.4055 90.8343 70.2524 92.6813 72.5307 92.6813H191.144C193.423 92.6813 195.27 90.8343 195.27 88.556V4.12513C195.27 1.84682 193.423 -0.00012207 191.144 -0.00012207Z" fill="#DEE8F5"/>
<path d="M188.409 3.94019H75.4336C73.9172 3.94019 72.6879 5.16945 72.6879 6.68583V85.8669C72.6879 87.3833 73.9172 88.6126 75.4336 88.6126H188.409C189.926 88.6126 191.155 87.3833 191.155 85.8669V6.68583C191.155 5.16945 189.926 3.94019 188.409 3.94019Z" fill="white"/>
<path d="M238.501 94.1684C238.477 93.7774 238.465 93.3544 238.471 92.8992C238.475 92.3148 238.508 91.6758 238.575 90.9791L233.428 89.9579C233.511 91.2387 233.461 92.5248 233.278 93.7951C233.274 93.8274 233.267 93.8597 233.264 93.892V93.8952C233.016 95.4424 232.486 97.0438 231.384 97.8988L239.458 97.9956C239.037 97.2488 238.619 96.0458 238.501 94.1684Z" fill="#E98862"/>
<path d="M241.532 88.3774C241.15 90.4353 240.001 92.3748 238.174 93.0189C236.005 93.7838 234.405 93.818 231.915 93.7876C228.517 93.7466 228.672 90.2038 228.62 86.632C228.567 83.0453 228.899 79.2028 230.257 77.9698C232.969 75.5083 240.816 77.183 241.723 81.3657C242.191 83.5289 241.895 86.4182 241.532 88.3774Z" fill="#E98862"/>
<path d="M226.625 77.886C227.219 75.8083 229.003 74.8117 231.923 75.6127C234 76.1825 234.27 75.6963 236.044 74.8682C237.061 74.3942 240.373 74.6564 241.167 76.9103C242.017 79.3247 244.761 77.4107 244.967 81.33C245.139 84.6103 243.974 89.2825 241.715 91.8922C240.934 92.7962 239.663 93.8743 238.686 94.1332C237.726 94.3876 233.594 94.1054 233.194 93.862C231.234 92.6651 231.502 87.2898 231.857 83.8438C231.915 83.2769 231.822 82.3322 230.365 82.3147C229.364 82.3025 228.81 82.2721 228.299 81.8931C228.298 81.8931 226.031 79.9636 226.625 77.886Z" fill="#0F1011"/>
<path d="M229.858 87.324C229.83 87.585 229.854 87.8489 229.929 88.1004C230.004 88.3519 230.129 88.586 230.295 88.7891C230.461 88.9923 230.666 89.1604 230.897 89.2838C231.129 89.4072 231.383 89.4835 231.644 89.5081C231.905 89.5327 232.169 89.5052 232.419 89.4272C232.67 89.3492 232.903 89.2222 233.104 89.0537C233.305 88.8851 233.471 88.6783 233.591 88.4453C233.712 88.2122 233.785 87.9575 233.807 87.6959C233.836 87.4359 233.812 87.1726 233.737 86.9219C233.662 86.6711 233.538 86.438 233.371 86.2365C233.204 86.0349 232.998 85.8689 232.766 85.7485C232.533 85.6281 232.279 85.5557 232.018 85.5357C230.605 85.4724 229.96 86.2337 229.858 87.324Z" fill="#E98862"/>
<path d="M232.053 87.1012C231.937 87.0787 231.83 87.0252 231.743 86.9463C231.656 86.8675 231.592 86.7663 231.558 86.6537C231.477 86.3857 230.624 80.0795 233.093 76.28C233.487 75.6265 234.031 75.076 234.68 74.6741C235.329 74.2722 236.064 74.0302 236.825 73.9683C236.91 73.9594 236.995 73.9672 237.076 73.9913C237.158 74.0154 237.234 74.0553 237.3 74.1088C237.366 74.1623 237.42 74.2282 237.461 74.3029C237.501 74.3776 237.527 74.4595 237.535 74.544C237.572 74.8991 237.315 74.8933 236.96 74.9314C235.238 75.1093 234.977 75.7857 234.169 76.9978C231.991 80.2684 232.778 86.223 232.796 86.2827C232.828 86.3893 232.832 86.5024 232.808 86.611C232.783 86.7196 232.731 86.8201 232.656 86.9026C232.582 86.9851 232.487 87.0469 232.381 87.082C232.276 87.1171 232.163 87.1242 232.053 87.1028L232.053 87.1012Z" fill="#C1D8ED"/>
<path d="M232.967 89.8122C234.676 89.8122 236.061 88.4268 236.061 86.7179C236.061 85.0089 234.676 83.6235 232.967 83.6235C231.258 83.6235 229.873 85.0089 229.873 86.7179C229.873 88.4268 231.258 89.8122 232.967 89.8122Z" fill="#C1D8ED"/>
<path d="M231.852 89.7415C233.561 89.7415 234.946 88.3561 234.946 86.6472C234.946 84.9382 233.561 83.5529 231.852 83.5529C230.143 83.5529 228.757 84.9382 228.757 86.6472C228.757 88.3561 230.143 89.7415 231.852 89.7415Z" fill="#DEE8F5"/>
<path d="M228.432 91.177C227.866 91.177 227.22 91.1517 226.494 91.1012C226.366 91.0922 226.247 91.0328 226.163 90.9359C226.078 90.839 226.036 90.7127 226.045 90.5846C226.048 90.5206 226.064 90.458 226.092 90.4003C226.12 90.3427 226.159 90.2914 226.207 90.2493C226.255 90.2073 226.312 90.1756 226.373 90.1559C226.434 90.1363 226.498 90.1292 226.562 90.1351C228.168 90.2469 230.1 90.2146 230.501 89.9931C230.7 89.3946 230.868 88.7861 231.004 88.1702C231.017 88.1066 231.042 88.0462 231.079 87.9927C231.116 87.9392 231.163 87.8935 231.217 87.8585C231.272 87.8235 231.333 87.7998 231.397 87.7888C231.461 87.7779 231.526 87.7799 231.589 87.7947C231.653 87.8095 231.712 87.8369 231.764 87.8752C231.817 87.9135 231.861 87.9619 231.894 88.0176C231.928 88.0733 231.949 88.1351 231.958 88.1994C231.967 88.2636 231.963 88.329 231.946 88.3917C231.796 89.121 231.584 89.8361 231.313 90.5294C231.055 90.9601 230.088 91.177 228.432 91.177Z" fill="#DEE8F5"/>
<path d="M226.643 89.8711H225.987C225.569 89.8711 225.23 90.2101 225.23 90.6282C225.23 91.0464 225.569 91.3853 225.987 91.3853H226.643C227.061 91.3853 227.4 91.0464 227.4 90.6282C227.4 90.2101 227.061 89.8711 226.643 89.8711Z" fill="#C1D8ED"/>
<path d="M165.925 173.128L160.491 170.293C160.491 170.293 165.741 163.436 166.118 162.942L170.538 167.059C170.16 167.552 165.925 173.128 165.925 173.128Z" fill="#E98862"/>
<path d="M152.712 175.29C152.53 175.289 152.35 175.25 152.183 175.177C152.016 175.103 151.866 174.996 151.742 174.862C151.619 174.728 151.524 174.57 151.465 174.397C151.405 174.225 151.381 174.042 151.396 173.86C151.415 173.609 151.506 173.367 151.658 173.165C151.81 172.964 152.017 172.809 152.254 172.721L160.145 170.076C160.297 170.025 160.459 170.008 160.62 170.026C160.78 170.044 160.934 170.096 161.072 170.179C162.157 170.931 163.455 171.316 164.775 171.276C165.803 171.203 166.79 170.843 167.622 170.235C167.696 170.175 167.784 170.137 167.878 170.126C167.972 170.114 168.068 170.13 168.153 170.17C168.239 170.211 168.311 170.275 168.362 170.355C168.412 170.435 168.439 170.528 168.439 170.623V174.482C168.439 174.596 168.416 174.708 168.372 174.813C168.329 174.918 168.265 175.014 168.184 175.094C168.104 175.175 168.008 175.238 167.903 175.281C167.797 175.325 167.685 175.347 167.571 175.346L152.712 175.29Z" fill="#C1D8ED"/>
<path d="M189.575 164.688L187.361 171.121L193.771 173.328L195.986 166.895L189.575 164.688Z" fill="#E98862"/>
<path d="M179.584 175.297C179.402 175.296 179.222 175.257 179.055 175.184C178.888 175.11 178.738 175.003 178.615 174.869C178.491 174.735 178.397 174.577 178.337 174.404C178.277 174.232 178.254 174.049 178.268 173.867C178.288 173.615 178.379 173.374 178.531 173.173C178.683 172.971 178.89 172.816 179.126 172.728L187.018 170.085C187.171 170.034 187.333 170.017 187.493 170.035C187.653 170.053 187.807 170.105 187.945 170.188C189.03 170.941 190.328 171.325 191.648 171.286C192.676 171.213 193.663 170.852 194.496 170.245C194.569 170.185 194.658 170.147 194.752 170.136C194.846 170.124 194.941 170.14 195.027 170.18C195.112 170.221 195.184 170.285 195.235 170.365C195.286 170.445 195.312 170.538 195.312 170.633V174.492C195.312 174.606 195.289 174.719 195.246 174.824C195.202 174.929 195.138 175.025 195.057 175.105C194.977 175.185 194.881 175.249 194.776 175.292C194.67 175.336 194.558 175.358 194.444 175.357L179.584 175.297Z" fill="#C1D8ED"/>
<path d="M202.131 124.284L202.034 124.267C200.534 124.019 198.995 124.352 197.732 125.199C196.469 126.046 195.577 127.343 195.237 128.825L186.197 168.286L197.841 170.954L205.523 137.421C205.604 137.442 205.684 137.462 205.766 137.483C207.696 137.978 209.621 138.485 211.541 139.003C215.376 140.04 219.19 143.382 222.889 144.546L226.49 130.4C222.378 129.588 204.191 124.552 202.131 124.284Z" fill="#262626"/>
<path opacity="0.07" d="M202.131 124.284L202.034 124.267C200.534 124.019 198.995 124.352 197.732 125.199C196.469 126.046 195.577 127.343 195.237 128.825L186.197 168.286L197.841 170.954L205.523 137.421C205.604 137.442 205.684 137.462 205.766 137.483C207.696 137.978 209.621 138.485 211.541 139.003C215.376 140.04 219.19 143.382 222.889 144.546L226.49 130.4C222.378 129.588 204.191 124.552 202.131 124.284Z" fill="black"/>
<path d="M242.449 141.204L243.39 132.414L218.192 130.279L217.523 132.036C211.025 130.5 204.486 127.062 197.909 126.051C196.799 125.879 195.664 126.002 194.616 126.405C193.568 126.809 192.644 127.479 191.936 128.351L159.915 167.931L170.4 173.128L199.487 139.768C204.439 140.779 229.744 150.921 236.429 147.634C240.027 145.865 242.29 142.687 242.449 141.204Z" fill="#262626"/>
<path d="M209.798 107.437C208.96 106.964 206.093 104.813 205.643 105.532C205.52 105.729 205.756 106.13 206.14 106.591C203.961 105.506 202.788 105.24 202.196 106.288C201.511 107.501 200.972 108.673 204.435 110.629C207.054 112.109 209.326 110.436 208.76 108.724L209.798 107.437Z" fill="#E98862"/>
<path d="M193.644 115.031C193.035 114.572 190.489 111.581 189.738 109.909C188.987 108.237 189.727 105.032 194.01 105.401C198.293 105.77 196.722 102.807 199.079 102.047C201.946 101.122 205.788 104.778 206.552 106.456C206.908 107.239 206.649 108.264 205.385 108.193C203.937 108.111 201.148 106.909 200.617 106.864C199.621 106.778 197.047 108.396 196.983 109.138C196.86 110.613 196.842 112.095 196.928 113.572C197.057 115.141 195.265 116.253 193.644 115.031Z" fill="#DEE8F5"/>
<path d="M195.346 107.602C195.414 106.814 194.614 106.101 193.558 106.01C192.503 105.92 191.592 106.485 191.524 107.272C191.457 108.06 192.257 108.773 193.313 108.864C194.368 108.955 195.279 108.39 195.346 107.602Z" fill="#C1D8ED"/>
<path d="M202.263 103.977C202.323 103.28 201.615 102.65 200.682 102.569C199.748 102.489 198.943 102.989 198.883 103.686C198.823 104.383 199.531 105.013 200.464 105.093C201.398 105.174 202.203 104.674 202.263 103.977Z" fill="#C1D8ED"/>
<path d="M219.594 116.407C220.586 107.507 217.408 94.8296 228.094 95.6845C229.387 95.7878 235.666 96.5517 240.263 97.1184C243.351 97.499 245.769 98.7592 247.052 100.404C251.477 106.073 244.222 113.91 243.392 120.641C242.562 127.371 245.232 130.763 244.585 134.189C243.563 139.575 217.34 135.04 216.376 131.79C215.383 128.439 218.435 126.826 219.594 116.407Z" fill="#6800E4"/>
<path d="M228.34 121.337C227.754 121.337 227.178 121.191 226.664 120.912L204.54 112.154L207.893 105.964L227.921 113.587L242.708 101.291L247.209 106.704L230.591 120.523C229.959 121.049 229.162 121.337 228.34 121.337Z" fill="#6800E4"/>
<path d="M199.152 113.003L199.922 111.937C199.085 111.464 196.166 109.558 195.715 110.277C195.592 110.474 195.828 110.875 196.212 111.335C194.034 110.25 192.86 109.985 192.269 111.033C191.583 112.246 191.045 113.418 194.507 115.374C197.97 117.33 201.384 114.512 199.152 113.003Z" fill="#E98862"/>
<path d="M213.866 126.654C213.108 126.654 212.371 126.4 211.775 125.933L195.288 116.24L199.471 110.903L212.602 117.966L221.619 98.6959L227.76 101.569L216.937 124.701C216.663 125.285 216.229 125.778 215.685 126.124C215.141 126.47 214.51 126.654 213.866 126.654Z" fill="#6800E4"/>
<path d="M251.116 116.346C259.151 116.374 271.909 124.755 274.899 142.849C278.689 165.791 268.834 174.874 247.989 175.357C233.028 175.704 216.175 176.705 207.819 175.311C187.523 171.514 190.374 144.179 204.048 142.61C248.221 142.609 223.353 116.247 251.116 116.346Z" fill="#C1D8ED"/>
<path d="M29.6178 101.811C29.6178 101.811 32.0519 100.376 31.1876 93.6102L36.2972 92.4214C36.2972 92.4214 35.9941 98.5365 38.6884 100.352L29.6178 101.811Z" fill="#E98862"/>
<path d="M28.1446 91.1084C28.5947 93.1528 29.8073 95.0531 31.6551 95.6366C33.6719 96.3331 35.8285 96.5256 37.9368 96.1974C43.5569 95.4793 41.8602 82.7016 39.0694 80.3331C36.2785 77.9645 28.4897 79.8966 27.7223 84.1064C27.3255 86.2848 27.7161 89.1628 28.1446 91.1084Z" fill="#E98862"/>
<path d="M39.0632 84.6571C38.1246 94.7951 36.4376 97.6893 31.0904 96.3665C29.8635 96.0633 26.7107 93.6454 25.6756 87.7754C25.3091 85.8178 25.6715 83.7938 26.6945 82.085C27.7174 80.3762 29.3303 79.1007 31.2289 78.4991C41.1408 75.8068 42.6583 84.8731 42.6583 84.8731C37.7049 86.3883 30.6238 85.835 30.6238 85.835" fill="#0F1011"/>
<path d="M40.0115 90.1929C40.0445 90.4513 40.0263 90.7136 39.9579 90.965C39.8896 91.2163 39.7724 91.4517 39.613 91.6577C39.4537 91.8637 39.2553 92.0364 39.0292 92.1657C38.8032 92.2951 38.5538 92.3787 38.2955 92.4117C38.0371 92.4447 37.7748 92.4265 37.5235 92.3581C37.2721 92.2897 37.0367 92.1725 36.8307 92.0132C36.4146 91.6914 36.1434 91.2174 36.0768 90.6956C36.0392 90.4366 36.0542 90.1728 36.1208 89.9197C36.1873 89.6666 36.3042 89.4295 36.4643 89.2225C36.6244 89.0155 36.8245 88.8428 37.0528 88.7148C37.281 88.5868 37.5327 88.506 37.7928 88.4772C39.2027 88.3681 39.874 89.1065 40.0115 90.1929Z" fill="#E98862"/>
<path d="M37.3749 90.4473C37.4904 90.4249 37.5975 90.3713 37.6847 90.2924C37.7719 90.2136 37.8359 90.1124 37.8699 89.9998C37.9503 89.7318 38.8036 83.4256 36.3347 79.6262C35.9405 78.9724 35.3965 78.4218 34.7476 78.0196C34.0987 77.6174 33.3635 77.3753 32.6027 77.3132C32.5182 77.3042 32.4328 77.312 32.3513 77.3362C32.2699 77.3603 32.194 77.4002 32.128 77.4537C32.062 77.5073 32.0072 77.5733 31.9668 77.648C31.9264 77.7227 31.9011 77.8046 31.8924 77.8891C31.8559 78.2443 32.1135 78.2385 32.4684 78.2766C34.1899 78.4545 34.4504 79.1309 35.2586 80.3429C37.4372 83.6135 36.6498 89.5681 36.632 89.6279C36.5999 89.7345 36.5958 89.8476 36.6203 89.9562C36.6448 90.0648 36.6969 90.1652 36.7716 90.2477C36.8463 90.3303 36.9411 90.3921 37.0468 90.4271C37.1524 90.4622 37.2654 90.4694 37.3746 90.448L37.3749 90.4473Z" fill="#C1D8ED"/>
<path d="M36.4607 93.1584C38.1696 93.1584 39.555 91.773 39.555 90.0641C39.555 88.3551 38.1696 86.9697 36.4607 86.9697C34.7517 86.9697 33.3663 88.3551 33.3663 90.0641C33.3663 91.773 34.7517 93.1584 36.4607 93.1584Z" fill="#C1D8ED"/>
<path d="M37.5762 93.0875C39.2851 93.0875 40.6705 91.7021 40.6705 89.9931C40.6705 88.2842 39.2851 86.8988 37.5762 86.8988C35.8672 86.8988 34.4818 88.2842 34.4818 89.9931C34.4818 91.7021 35.8672 93.0875 37.5762 93.0875Z" fill="#DEE8F5"/>
<path d="M40.9969 94.5225C39.3403 94.5225 38.3726 94.3059 38.1121 93.8749C37.8405 93.1816 37.6285 92.4665 37.4783 91.7372C37.4521 91.6133 37.4755 91.4841 37.5434 91.3773C37.6112 91.2704 37.7183 91.1944 37.8415 91.1655C37.9648 91.1366 38.0944 91.1571 38.2028 91.2226C38.3111 91.2881 38.3895 91.3935 38.4211 91.516C38.5571 92.132 38.7253 92.7403 38.9251 93.3386C39.3296 93.5611 41.2587 93.5924 42.864 93.481C42.9282 93.4751 42.993 93.4821 43.0545 93.5016C43.1159 93.521 43.1729 93.5526 43.222 93.5944C43.2712 93.6361 43.3114 93.6873 43.3405 93.7448C43.3696 93.8024 43.3869 93.8652 43.3914 93.9295C43.3959 93.9938 43.3875 94.0584 43.3667 94.1195C43.3459 94.1805 43.3131 94.2368 43.2703 94.285C43.2274 94.3332 43.1754 94.3723 43.1172 94.4002C43.0591 94.428 42.9959 94.4439 42.9315 94.447C42.2074 94.4974 41.5626 94.5225 40.9969 94.5225Z" fill="#DEE8F5"/>
<path d="M42.7848 94.7316H43.4406C43.8587 94.7316 44.1977 94.3926 44.1977 93.9744C44.1977 93.5563 43.8587 93.2173 43.4406 93.2173H42.7848C42.3667 93.2173 42.0277 93.5563 42.0277 93.9744C42.0277 94.3926 42.3667 94.7316 42.7848 94.7316Z" fill="#C1D8ED"/>
<path d="M118.459 169.191L112.688 172.749C112.688 172.749 107.48 167.966 107.153 167.439L112.913 163.862C113.241 164.391 118.459 169.191 118.459 169.191Z" fill="#E98862"/>
<path d="M125.567 164.876C125.696 164.747 125.797 164.593 125.863 164.423C125.93 164.253 125.961 164.072 125.955 163.889C125.948 163.707 125.904 163.528 125.825 163.364C125.746 163.2 125.634 163.053 125.496 162.934C125.305 162.769 125.071 162.662 124.821 162.625C124.57 162.589 124.315 162.625 124.085 162.728L116.619 166.403C116.475 166.474 116.348 166.576 116.246 166.702C116.145 166.827 116.072 166.973 116.033 167.129C115.791 168.427 115.14 169.614 114.174 170.514C113.392 171.186 112.437 171.624 111.418 171.779C111.324 171.788 111.234 171.823 111.159 171.881C111.084 171.939 111.028 172.017 110.995 172.106C110.963 172.196 110.957 172.292 110.978 172.384C110.998 172.477 111.045 172.562 111.112 172.629L113.827 175.37C113.907 175.451 114.002 175.516 114.107 175.56C114.212 175.604 114.325 175.626 114.439 175.627C114.552 175.627 114.665 175.605 114.77 175.561C114.876 175.518 114.971 175.454 115.052 175.374L125.567 164.876Z" fill="#C1D8ED"/>
<path d="M99.7828 171.005L93.5017 173.559C92.5351 171.182 91.3547 168.338 91.1329 167.887C91.1471 167.915 91.16 167.939 91.1697 167.957L97.1049 164.679C97.2034 164.856 97.502 165.398 99.7828 171.005Z" fill="#E98862"/>
<path d="M107.38 175.093C107.562 175.095 107.743 175.058 107.911 174.987C108.078 174.915 108.23 174.81 108.355 174.678C108.48 174.545 108.577 174.388 108.639 174.217C108.7 174.045 108.726 173.863 108.715 173.681C108.698 173.429 108.61 173.186 108.461 172.983C108.311 172.779 108.106 172.622 107.871 172.53L100.014 169.786C99.8621 169.734 99.7003 169.714 99.54 169.73C99.3797 169.746 99.2248 169.796 99.0857 169.877C97.9911 170.616 96.6885 170.984 95.3692 170.927C94.3423 170.841 93.3602 170.467 92.5351 169.85C92.4626 169.789 92.3743 169.75 92.2805 169.737C92.1866 169.725 92.0911 169.739 92.005 169.778C91.919 169.818 91.8459 169.881 91.7944 169.96C91.7429 170.04 91.715 170.132 91.7141 170.227L91.664 174.086C91.6626 174.2 91.6836 174.313 91.7259 174.418C91.7682 174.524 91.831 174.62 91.9106 174.702C91.9902 174.783 92.0851 174.848 92.1898 174.892C92.2945 174.937 92.4071 174.961 92.5209 174.962L107.38 175.093Z" fill="#C1D8ED"/>
<path d="M116.786 163.049C115.115 162.32 80.347 129.101 78.9106 131.258C68.0436 131.032 57.1582 130.755 46.3877 132.802L49.9896 146.948C58.6834 144.549 67.9609 143.972 76.9705 143.313L109.342 172.393L116.786 163.049Z" fill="#262626"/>
<path opacity="0.07" d="M116.786 163.049C115.115 162.32 80.347 129.101 78.9106 131.258C68.0436 131.032 57.1582 130.755 46.3877 132.802L49.9896 146.948C58.6834 144.549 67.9609 143.972 76.9705 143.313L109.342 172.393L116.786 163.049Z" fill="black"/>
<path d="M101.398 167.425L83.5944 133.74C82.9692 132.562 81.9941 131.607 80.8035 131.006C79.6129 130.406 78.2653 130.189 76.9462 130.385C69.6592 131.507 62.5678 132.739 55.3543 134.436L54.6856 132.68L29.4873 134.816L30.4285 143.606C30.8159 147.232 36.6785 152.55 41.977 151.688C43.663 151.288 45.6373 151.331 47.2236 150.911C56.4062 148.757 65.1504 145.918 74.4447 144.264L90.9266 173.175L101.398 167.425Z" fill="#262626"/>
<path d="M73.4244 115.21C73.0692 114.06 71.8659 114.069 69.5071 114.667C69.9801 114.298 70.2958 113.956 70.2174 113.738C69.9303 112.939 66.6713 114.431 65.7521 114.716L66.4925 116.195C65.5755 117.746 67.4398 119.865 70.3133 118.976C74.1127 117.8 73.836 116.541 73.4244 115.21Z" fill="#E98862"/>
<path d="M79.9218 125.572C80.614 125.253 83.7391 122.872 84.8294 121.398C85.9197 119.925 85.8777 116.635 81.614 116.085C77.3502 115.534 79.5153 112.973 77.3751 111.729C74.7695 110.216 70.2397 112.971 69.1346 114.448C68.6196 115.136 68.6538 116.194 69.9056 116.393C71.3384 116.619 74.3188 116.04 74.848 116.109C75.8392 116.238 78.0101 118.366 77.9152 119.104C77.7214 120.571 77.4242 122.023 77.026 123.448C76.5643 124.954 78.0786 126.421 79.9218 125.572Z" fill="#51E678"/>
<path opacity="0.33" d="M83.643 118.441C83.7442 117.656 82.9746 116.911 81.924 116.775C80.8733 116.639 79.9395 117.165 79.8383 117.949C79.737 118.734 80.5066 119.479 81.5573 119.615C82.6079 119.751 83.5417 119.225 83.643 118.441Z" fill="white"/>
<path opacity="0.33" d="M77.2158 113.371C77.3054 112.677 76.6248 112.017 75.6957 111.897C74.7665 111.777 73.9407 112.243 73.8511 112.936C73.7615 113.63 74.4421 114.29 75.3713 114.41C76.3004 114.53 77.1263 114.065 77.2158 113.371Z" fill="white"/>
<path d="M51.7876 119.068C50.0358 110.286 52.1144 97.3828 41.5408 99.1515C40.261 99.3655 34.0707 100.666 29.5403 101.625C26.4963 102.27 24.1952 103.732 23.0575 105.48C19.1353 111.508 27.0365 118.694 28.4406 125.328C29.8447 131.963 27.4759 135.571 28.4144 138.929C29.8951 144.208 55.632 137.439 56.3135 134.118C57.0145 130.696 53.8365 129.349 51.7876 119.068Z" fill="#6800E4"/>
<path d="M42.3419 123.452C41.6573 123.452 40.9876 123.252 40.4147 122.877L23.5244 111.827L27.379 105.936L43.2156 116.296L68.4436 113.028L69.1998 120.027L42.72 123.431C42.5944 123.445 42.4682 123.452 42.3419 123.452Z" fill="#6800E4"/>
<path d="M82.2338 122.359C81.8786 121.21 80.5597 120.816 78.2009 121.413C78.6739 121.045 78.9896 120.703 78.9112 120.485C78.6241 119.686 75.3664 120.928 74.4472 121.213L74.9732 122.417C72.471 123.418 74.3475 126.748 79.007 125.722C81.7411 125.12 82.6441 123.69 82.2338 122.359Z" fill="#E98862"/>
<path d="M58.0834 128.799C57.4885 128.799 56.904 128.642 56.3888 128.345C55.8736 128.047 55.4457 127.619 55.1483 127.104L42.3796 104.988L48.2519 101.598L59.9121 121.796L76.2094 119.983L76.9591 126.722L58.4589 128.78C58.3342 128.793 58.2088 128.799 58.0834 128.799Z" fill="#6800E4"/>
<path d="M19.2557 89.7488C19.1107 84.9597 20.2323 82.0694 21.8102 80.5442C23.3667 79.0393 28.3343 77.9613 30.3687 83.9178C31.696 87.8041 31.2404 89.134 31.7351 95.2539C32.2297 101.374 33.6723 101.381 33.8834 107.01C34.1094 112.995 31.6259 117.644 25.2129 117.539C19.9766 117.453 16.674 114.902 16.2482 109.638C15.637 102.083 19.5391 99.1341 19.2557 89.7488Z" fill="#0F1011"/>
<path d="M25.5516 120.344C17.5174 120.373 3.6103 126.369 0.620886 144.462C-3.16923 167.404 10.9648 176.029 27.5311 175.356C42.4833 174.748 59.3446 176.381 67.7003 174.987C87.9963 171.19 81.7411 146.187 71.4721 144.223C27.298 144.224 53.3148 120.245 25.5516 120.344Z" fill="#C1D8ED"/>
<path d="M75.5337 7.28809V85.209H188.367V7.28809H75.5337Z" fill="#F3F5FD"/>
<path d="M103.087 55.4744C114.7 55.4744 124.113 46.0607 124.113 34.4484C124.113 22.8361 114.7 13.4225 103.087 13.4225C91.475 13.4225 82.0613 22.8361 82.0613 34.4484C82.0613 46.0607 91.475 55.4744 103.087 55.4744Z" fill="#DEE8F5"/>
<path d="M123.258 61.9365H82.9172V64.2105H123.258V61.9365Z" fill="#DEE8F5"/>
<path d="M180.984 61.9365H140.643V64.2105H180.984V61.9365Z" fill="#DEE8F5"/>
<path d="M116.785 61.9365H82.9172V64.2105H116.785V61.9365Z" fill="#51E678"/>
<path d="M162.97 61.9365H140.643V64.2105H162.97V61.9365Z" fill="#262626"/>
<path d="M123.258 67.9501H82.9172V70.224H123.258V67.9501Z" fill="#DEE8F5"/>
<path d="M180.984 67.9501H140.643V70.224H180.984V67.9501Z" fill="#DEE8F5"/>
<path d="M103.088 67.9501H82.9172V70.224H103.088V67.9501Z" fill="#51E678"/>
<path d="M173.961 67.9501H140.643V70.224H173.961V67.9501Z" fill="#262626"/>
<path d="M123.258 74.3274H82.9172V76.6013H123.258V74.3274Z" fill="#DEE8F5"/>
<path d="M180.984 74.3274H140.643V76.6013H180.984V74.3274Z" fill="#DEE8F5"/>
<path d="M118.46 74.3274H82.9172V76.6013H118.46V74.3274Z" fill="#51E678"/>
<path d="M166.213 74.3274H140.643V76.6013H166.213V74.3274Z" fill="#262626"/>
<path d="M160.814 55.4744C172.426 55.4744 181.84 46.0607 181.84 34.4484C181.84 22.8361 172.426 13.4225 160.814 13.4225C149.201 13.4225 139.788 22.8361 139.788 34.4484C139.788 46.0607 149.201 55.4744 160.814 55.4744Z" fill="#DEE8F5"/>
<path d="M130.584 31.0957H132.678L130.408 38.0215H128.206L125.946 31.0957H128.048L128.991 34.6059C129.141 35.1399 129.249 35.6847 129.314 36.2354C129.335 36.0146 129.38 35.7383 129.447 35.4066C129.514 35.0749 129.572 34.8144 129.622 34.6249L130.584 31.0957Z" fill="#C1D8ED"/>
<path d="M137.955 35.918C137.962 36.3234 137.848 36.7217 137.628 37.0623C137.396 37.4072 137.068 37.6771 136.685 37.8391C136.229 38.0329 135.736 38.1273 135.241 38.1161C134.851 38.1226 134.463 38.0902 134.08 38.0192C133.742 37.946 133.415 37.8323 133.104 37.6806V36.0133C133.459 36.1956 133.832 36.3393 134.217 36.4417C134.563 36.5389 134.92 36.5907 135.278 36.5957C135.492 36.6122 135.706 36.5618 135.89 36.4514C135.95 36.4101 135.999 36.3546 136.033 36.2897C136.067 36.2248 136.084 36.1526 136.083 36.0795C136.085 35.9903 136.058 35.9029 136.005 35.8309C135.935 35.7442 135.85 35.6711 135.754 35.6152C135.639 35.5426 135.332 35.3942 134.833 35.17C134.469 35.0174 134.127 34.8166 133.817 34.573C133.601 34.3935 133.429 34.1667 133.314 33.9101C133.2 33.6292 133.144 33.3276 133.151 33.0242C133.138 32.7377 133.194 32.4523 133.316 32.1924C133.437 31.9326 133.619 31.7059 133.847 31.5319C134.408 31.1455 135.082 30.9567 135.762 30.995C136.52 31.0042 137.267 31.1738 137.955 31.4925L137.382 32.9373C136.86 32.6724 136.289 32.5207 135.705 32.4921C135.518 32.4774 135.333 32.5226 135.174 32.6213C135.123 32.6569 135.081 32.7044 135.052 32.7597C135.024 32.8149 135.008 32.8763 135.008 32.9386C135.012 33.0119 135.033 33.0832 135.069 33.1467C135.106 33.2102 135.158 33.264 135.219 33.3035C135.584 33.5295 135.967 33.7259 136.363 33.8908C136.841 34.0741 137.268 34.3706 137.607 34.7551C137.848 35.0935 137.971 35.5025 137.955 35.918Z" fill="#C1D8ED"/>
<path d="M165.394 24.1926H155.887C155.314 24.1926 154.747 24.3054 154.217 24.5247C153.688 24.7439 153.207 25.0653 152.802 25.4705C152.397 25.8757 152.075 26.3567 151.856 26.8861C151.637 27.4154 151.524 27.9828 151.524 28.5558V33.3294H152.667V29.5842C152.666 29.1259 152.756 28.6721 152.932 28.2486C153.107 27.8252 153.364 27.4405 153.688 27.1165C154.012 26.7924 154.397 26.5355 154.82 26.3602C155.244 26.185 155.697 26.095 156.156 26.0953L163.144 26.0991C163.706 26.0996 164.245 26.3232 164.642 26.7208C165.039 27.1185 165.263 27.6576 165.262 28.2197V31.326C165.262 31.5118 165.299 31.6957 165.37 31.8674C165.441 32.039 165.546 32.195 165.677 32.3263C165.808 32.4577 165.964 32.5618 166.136 32.6329C166.308 32.704 166.492 32.7405 166.677 32.7405H167.417C167.662 32.7404 167.903 32.6765 168.116 32.5551C168.329 32.4336 168.507 32.2589 168.632 32.0479V33.3291H169.757V28.5558C169.757 27.9828 169.644 27.4154 169.425 26.8861C169.206 26.3567 168.884 25.8757 168.479 25.4705C168.074 25.0653 167.593 24.7439 167.064 24.5247C166.534 24.3054 165.967 24.1926 165.394 24.1926Z" fill="#0F1011"/>
<path d="M168.633 29.5843V33.3296H152.667V29.5843C152.667 29.1261 152.757 28.6723 152.932 28.2488C153.107 27.8254 153.364 27.4407 153.688 27.1166C154.012 26.7926 154.397 26.5356 154.821 26.3604C155.244 26.1852 155.698 26.0952 156.156 26.0955H165.143C165.602 26.0952 166.055 26.1852 166.479 26.3604C166.902 26.5356 167.287 26.7926 167.611 27.1166C167.935 27.4407 168.192 27.8254 168.367 28.2488C168.543 28.6723 168.633 29.1261 168.633 29.5843Z" fill="#0F1011"/>
<path d="M171.099 33.0474C171.099 32.3638 170.847 31.704 170.393 31.1936C169.938 30.6831 169.311 30.3576 168.632 30.2788V29.5843C168.632 28.659 168.265 27.7716 167.61 27.1173C166.956 26.463 166.069 26.0955 165.143 26.0955H156.155C155.23 26.0955 154.342 26.463 153.688 27.1173C153.034 27.7716 152.666 28.659 152.666 29.5843V30.3382C152.057 30.4837 151.515 30.8302 151.127 31.3217C150.739 31.8133 150.528 32.4212 150.528 33.0474C150.528 33.6736 150.739 34.2815 151.127 34.7731C151.515 35.2646 152.057 35.6111 152.666 35.7566V36.5104C152.666 37.4358 153.034 38.3232 153.688 38.9775C154.342 39.6318 155.23 39.9993 156.155 39.9993H165.143C165.602 39.9994 166.055 39.9092 166.479 39.7338C166.902 39.5585 167.287 39.3015 167.611 38.9776C167.935 38.6536 168.192 38.269 168.367 37.8457C168.542 37.4223 168.633 36.9686 168.633 36.5104V35.816C169.312 35.7372 169.938 35.4116 170.393 34.9012C170.848 34.3907 171.099 33.731 171.099 33.0474Z" fill="#262626"/>
<path opacity="0.08" d="M171.099 33.0474C171.099 32.3638 170.847 31.704 170.393 31.1936C169.938 30.6831 169.311 30.3576 168.632 30.2788V29.5843C168.632 28.659 168.265 27.7716 167.61 27.1173C166.956 26.463 166.069 26.0955 165.143 26.0955H156.155C155.23 26.0955 154.342 26.463 153.688 27.1173C153.034 27.7716 152.666 28.659 152.666 29.5843V30.3382C152.057 30.4837 151.515 30.8302 151.127 31.3217C150.739 31.8133 150.528 32.4212 150.528 33.0474C150.528 33.6736 150.739 34.2815 151.127 34.7731C151.515 35.2646 152.057 35.6111 152.666 35.7566V36.5104C152.666 37.4358 153.034 38.3232 153.688 38.9775C154.342 39.6318 155.23 39.9993 156.155 39.9993H165.143C165.602 39.9994 166.055 39.9092 166.479 39.7338C166.902 39.5585 167.287 39.3015 167.611 38.9776C167.935 38.6536 168.192 38.269 168.367 37.8457C168.542 37.4223 168.633 36.9686 168.633 36.5104V35.816C169.312 35.7371 169.938 35.4115 170.393 34.9011C170.847 34.3907 171.099 33.731 171.099 33.0474Z" fill="black"/>
<path d="M154.52 44.7048H166.779C167.802 44.7048 168.632 43.875 168.632 42.8513V36.4453C168.632 35.4216 167.802 34.5917 166.779 34.5917H154.52C153.496 34.5917 152.666 35.4216 152.666 36.4453V42.8513C152.666 43.875 153.496 44.7048 154.52 44.7048Z" fill="#0F1011"/>
<path d="M162.142 32.0139C162.58 32.0139 162.936 31.6588 162.936 31.2206C162.936 30.7825 162.58 30.4274 162.142 30.4274C161.704 30.4274 161.349 30.7825 161.349 31.2206C161.349 31.6588 161.704 32.0139 162.142 32.0139Z" fill="#0F1011"/>
<path d="M156.634 32.0139C157.072 32.0139 157.427 31.6588 157.427 31.2206C157.427 30.7825 157.072 30.4274 156.634 30.4274C156.196 30.4274 155.841 30.7825 155.841 31.2206C155.841 31.6588 156.196 32.0139 156.634 32.0139Z" fill="#0F1011"/>
<path d="M155.229 29.6853L157.952 30.2259C158.185 30.2721 158.411 30.1209 158.457 29.8882C158.503 29.6555 158.352 29.4294 158.119 29.3832L155.397 28.8426C155.164 28.7964 154.938 28.9476 154.891 29.1803C154.845 29.413 154.996 29.6391 155.229 29.6853Z" fill="#0F1011"/>
<path d="M163.57 28.8419L160.847 29.3825C160.615 29.4287 160.463 29.6548 160.509 29.8875C160.556 30.1202 160.782 30.2714 161.015 30.2252L163.737 29.6846C163.97 29.6384 164.122 29.4123 164.075 29.1796C164.029 28.9469 163.803 28.7957 163.57 28.8419Z" fill="#0F1011"/>
<path opacity="0.08" d="M159.152 33.4683H159.153C159.372 33.4683 159.549 33.2908 159.549 33.0718V32.4106C159.549 32.1916 159.372 32.0141 159.153 32.0141H159.152C158.933 32.0141 158.756 32.1916 158.756 32.4106V33.0718C158.756 33.2908 158.933 33.4683 159.152 33.4683Z" fill="black"/>
<path d="M159.043 37.6957L162.468 37.0293C162.537 37.0196 162.603 36.9963 162.663 36.961C162.722 36.9256 162.775 36.8789 162.816 36.8233C162.858 36.7678 162.888 36.7046 162.906 36.6374C162.923 36.5701 162.927 36.5001 162.917 36.4314C162.907 36.3626 162.884 36.2965 162.848 36.2368C162.813 36.177 162.766 36.1248 162.711 36.0831C162.655 36.0414 162.592 36.0111 162.525 35.9939C162.458 35.9766 162.388 35.9728 162.319 35.9826L158.894 36.6487C158.755 36.6684 158.63 36.7425 158.546 36.8546C158.462 36.9668 158.425 37.1078 158.445 37.2466C158.465 37.3855 158.539 37.5108 158.651 37.595C158.763 37.6792 158.905 37.7154 159.043 37.6957Z" fill="white"/>
<path d="M164.172 26.0994C164.735 26.0999 165.274 26.3235 165.671 26.7211C166.068 27.1188 166.291 27.6579 166.291 28.22V30.0281C166.291 30.3721 166.428 30.7021 166.671 30.9454C166.914 31.1887 167.244 31.3253 167.588 31.3253C167.759 31.3253 167.927 31.2918 168.085 31.2266C168.242 31.1614 168.385 31.0658 168.506 30.9454C168.626 30.8249 168.722 30.6819 168.787 30.5245C168.852 30.3671 168.886 30.1984 168.886 30.0281V26.0956L163.964 24.6898L164.172 26.0994Z" fill="#0F1011"/>
<path d="M97.5397 24.1926H97.5394C94.8945 24.1926 92.7504 26.3368 92.7504 28.9817V43.2129C92.7504 45.8579 94.8945 48.002 97.5394 48.002H97.5397C100.185 48.002 102.329 45.8579 102.329 43.2129V28.9817C102.329 26.3368 100.185 24.1926 97.5397 24.1926Z" fill="#0F1011"/>
<path d="M105.076 24.533H105.076C101.25 24.533 98.1486 27.6345 98.1486 31.4604V34.6609C98.1486 38.4868 101.25 41.5883 105.076 41.5883H105.076C108.902 41.5883 112.004 38.4868 112.004 34.6609V31.4604C112.004 27.6345 108.902 24.533 105.076 24.533Z" fill="#51E678"/>
<path d="M100.982 33.8688C100.982 32.4656 99.8449 31.328 98.4417 31.328C97.0384 31.328 95.9009 32.4656 95.9009 33.8688C95.9009 35.272 97.0384 36.4096 98.4417 36.4096C99.8449 36.4096 100.982 35.272 100.982 33.8688Z" fill="#51E678"/>
<path d="M105.328 33.8501C105.727 33.8501 106.051 33.5265 106.051 33.1275C106.051 32.7284 105.727 32.4049 105.328 32.4049C104.929 32.4049 104.606 32.7284 104.606 33.1275C104.606 33.5265 104.929 33.8501 105.328 33.8501Z" fill="#0F1011"/>
<path d="M110.032 33.8501C110.431 33.8501 110.755 33.5265 110.755 33.1275C110.755 32.7284 110.431 32.4049 110.032 32.4049C109.633 32.4049 109.31 32.7284 109.31 33.1275C109.31 33.5265 109.633 33.8501 110.032 33.8501Z" fill="#0F1011"/>
<path d="M110.902 30.9607L108.421 31.4533C108.209 31.4954 108.071 31.7015 108.113 31.9135C108.155 32.1256 108.361 32.2634 108.573 32.2212L111.054 31.7287C111.266 31.6866 111.404 31.4805 111.362 31.2685C111.32 31.0564 111.114 30.9186 110.902 30.9607Z" fill="#0F1011"/>
<path d="M103.358 31.7288L105.838 32.2213C106.051 32.2635 106.257 32.1257 106.299 31.9136C106.341 31.7016 106.203 31.4955 105.991 31.4534L103.51 30.9608C103.298 30.9187 103.092 31.0565 103.05 31.2686C103.008 31.4806 103.145 31.6867 103.358 31.7288Z" fill="#0F1011"/>
<path opacity="0.08" d="M107.84 34.2117C107.84 34.0122 107.678 33.8505 107.479 33.8505C107.279 33.8505 107.118 34.0122 107.118 34.2117V34.8142C107.118 35.0137 107.279 35.1755 107.479 35.1755C107.678 35.1755 107.84 35.0137 107.84 34.8142V34.2117Z" fill="black"/>
<path d="M108.576 36.661H105.665C105.402 36.661 105.19 36.8736 105.19 37.1359V37.1363C105.19 37.3986 105.402 37.6112 105.665 37.6112H108.576C108.838 37.6112 109.051 37.3986 109.051 37.1363V37.1359C109.051 36.8736 108.838 36.661 108.576 36.661Z" fill="white"/>
<path d="M112.206 29.7755C112.206 28.0299 111.513 26.3558 110.278 25.1214C109.044 23.8871 107.37 23.1936 105.624 23.1936H104.426C102.681 23.1936 101.006 23.887 99.7721 25.1213C98.5378 26.3556 97.8443 28.0296 97.8442 29.7752V32.681C97.8442 32.8871 97.8848 33.0911 97.9636 33.2815C98.0425 33.4719 98.1581 33.6448 98.3038 33.7905C98.4495 33.9362 98.6225 34.0518 98.8128 34.1307C99.0032 34.2095 99.2072 34.2501 99.4133 34.2501C99.6194 34.2502 99.8235 34.2096 100.014 34.1308C100.204 34.0519 100.377 33.9364 100.523 33.7907C100.669 33.6449 100.784 33.4719 100.863 33.2816C100.942 33.0912 100.983 32.8871 100.983 32.681V31.0515C100.983 30.7131 101.117 30.3885 101.356 30.1493C101.596 29.91 101.92 29.7755 102.259 29.7755H112.206Z" fill="#0F1011"/>
</g>
<defs>
<clipPath id="clip0_46_307">
<rect width="275.696" height="176.03" fill="white"/>
</clipPath>
</defs>
</svg>
