<svg width="32" height="32" viewBox="0 0 32 32" fill="none" xmlns="http://www.w3.org/2000/svg">
<path d="M7.53335 23.2666C8.84447 22.3259 10.1926 21.5981 11.5778 21.0833C12.963 20.5685 14.4371 20.3111 16 20.3111C17.563 20.3111 19.0408 20.5685 20.4334 21.0833C21.826 21.5981 23.1778 22.3259 24.4889 23.2666C25.4 22.1629 26.0648 21.0111 26.4834 19.8111C26.9019 18.6111 27.1112 17.3407 27.1112 16C27.1112 12.8666 26.0426 10.2314 23.9056 8.09439C21.7685 5.95735 19.1334 4.88883 16 4.88883C12.8667 4.88883 10.2315 5.95735 8.09445 8.09439C5.95741 10.2314 4.88889 12.8666 4.88889 16C4.88889 17.3407 5.10185 18.6111 5.52779 19.8111C5.95372 21.0111 6.62224 22.1629 7.53335 23.2666ZM15.9959 17.1111C14.7024 17.1111 13.613 16.6671 12.7278 15.7792C11.8426 14.8912 11.4 13.8005 11.4 12.5069C11.4 11.2134 11.844 10.124 12.7319 9.23886C13.6199 8.35366 14.7106 7.91106 16.0042 7.91106C17.2977 7.91106 18.3871 8.35504 19.2723 9.24299C20.1574 10.1309 20.6 11.2217 20.6 12.5152C20.6 13.8087 20.1561 14.8981 19.2681 15.7833C18.3802 16.6685 17.2894 17.1111 15.9959 17.1111ZM16.0104 29.3333C14.1739 29.3333 12.4445 28.9833 10.8223 28.2833C9.20003 27.5833 7.78521 26.6296 6.57779 25.4222C5.37039 24.2148 4.41669 22.8017 3.71669 21.1829C3.01669 19.5642 2.66669 17.8345 2.66669 15.9941C2.66669 14.1535 3.01669 12.4259 3.71669 10.8111C4.41669 9.19626 5.37039 7.78515 6.57779 6.57773C7.78521 5.37033 9.1983 4.41663 10.8171 3.71663C12.4358 3.01663 14.1654 2.66663 16.0059 2.66663C17.8464 2.66663 19.5741 3.01663 21.1889 3.71663C22.8037 4.41663 24.2148 5.37033 25.4223 6.57773C26.6297 7.78515 27.5834 9.1965 28.2834 10.8118C28.9834 12.4271 29.3334 14.153 29.3334 15.9896C29.3334 17.8261 28.9834 19.5555 28.2834 21.1777C27.5834 22.7999 26.6297 24.2148 25.4223 25.4222C24.2148 26.6296 22.8035 27.5833 21.1882 28.2833C19.5729 28.9833 17.847 29.3333 16.0104 29.3333ZM16 27.1111C17.2074 27.1111 18.3741 26.9352 19.5 26.5833C20.626 26.2314 21.7111 25.6518 22.7556 24.8444C21.7111 24.0963 20.6223 23.524 19.4889 23.1277C18.3556 22.7314 17.1926 22.5333 16 22.5333C14.8074 22.5333 13.6445 22.7314 12.5111 23.1277C11.3778 23.524 10.2889 24.0963 9.24445 24.8444C10.2889 25.6518 11.3741 26.2314 12.5 26.5833C13.626 26.9352 14.7926 27.1111 16 27.1111ZM16 14.8889C16.6963 14.8889 17.2667 14.6666 17.7112 14.2222C18.1556 13.7777 18.3778 13.2074 18.3778 12.5111C18.3778 11.8148 18.1556 11.2444 17.7112 10.8C17.2667 10.3555 16.6963 10.1333 16 10.1333C15.3037 10.1333 14.7334 10.3555 14.2889 10.8C13.8444 11.2444 13.6222 11.8148 13.6222 12.5111C13.6222 13.2074 13.8444 13.7777 14.2889 14.2222C14.7334 14.6666 15.3037 14.8889 16 14.8889Z" fill="#787878"/>
</svg>
