<svg width="32" height="32" viewBox="0 0 32 32" fill="none" xmlns="http://www.w3.org/2000/svg">
<path d="M7.53334 23.2666C8.84445 22.3259 10.1926 21.5981 11.5778 21.0833C12.963 20.5685 14.437 20.3111 16 20.3111C17.563 20.3111 19.0407 20.5685 20.4333 21.0833C21.8259 21.5981 23.1778 22.3259 24.4889 23.2666C25.4 22.1629 26.0648 21.0111 26.4833 19.8111C26.9019 18.6111 27.1111 17.3407 27.1111 16C27.1111 12.8666 26.0426 10.2314 23.9056 8.09439C21.7685 5.95735 19.1333 4.88883 16 4.88883C12.8667 4.88883 10.2315 5.95735 8.09444 8.09439C5.95739 10.2314 4.88887 12.8666 4.88887 16C4.88887 17.3407 5.10184 18.6111 5.52777 19.8111C5.95371 21.0111 6.62223 22.1629 7.53334 23.2666ZM15.9959 17.1111C14.7023 17.1111 13.613 16.6671 12.7278 15.7792C11.8426 14.8912 11.4 13.8005 11.4 12.5069C11.4 11.2134 11.844 10.124 12.7319 9.23886C13.6199 8.35366 14.7106 7.91106 16.0041 7.91106C17.2977 7.91106 18.387 8.35504 19.2722 9.24299C20.1574 10.1309 20.6 11.2217 20.6 12.5152C20.6 13.8087 20.156 14.8981 19.2681 15.7833C18.3802 16.6685 17.2894 17.1111 15.9959 17.1111ZM16.0104 29.3333C14.1739 29.3333 12.4445 28.9833 10.8222 28.2833C9.20002 27.5833 7.78519 26.6296 6.57777 25.4222C5.37037 24.2148 4.41667 22.8017 3.71667 21.1829C3.01667 19.5642 2.66667 17.8345 2.66667 15.9941C2.66667 14.1535 3.01667 12.4259 3.71667 10.8111C4.41667 9.19626 5.37037 7.78515 6.57777 6.57773C7.78519 5.37033 9.19828 4.41663 10.817 3.71663C12.4358 3.01663 14.1654 2.66663 16.0059 2.66663C17.8464 2.66663 19.5741 3.01663 21.1889 3.71663C22.8037 4.41663 24.2148 5.37033 25.4222 6.57773C26.6296 7.78515 27.5833 9.1965 28.2833 10.8118C28.9833 12.4271 29.3333 14.153 29.3333 15.9896C29.3333 17.8261 28.9833 19.5555 28.2833 21.1777C27.5833 22.7999 26.6296 24.2148 25.4222 25.4222C24.2148 26.6296 22.8035 27.5833 21.1882 28.2833C19.5729 28.9833 17.847 29.3333 16.0104 29.3333ZM16 27.1111C17.2074 27.1111 18.3741 26.9352 19.5 26.5833C20.6259 26.2314 21.7111 25.6518 22.7556 24.8444C21.7111 24.0963 20.6222 23.524 19.4889 23.1277C18.3556 22.7314 17.1926 22.5333 16 22.5333C14.8074 22.5333 13.6444 22.7314 12.5111 23.1277C11.3778 23.524 10.2889 24.0963 9.24444 24.8444C10.2889 25.6518 11.3741 26.2314 12.5 26.5833C13.6259 26.9352 14.7926 27.1111 16 27.1111ZM16 14.8889C16.6963 14.8889 17.2667 14.6666 17.7111 14.2222C18.1556 13.7777 18.3778 13.2074 18.3778 12.5111C18.3778 11.8148 18.1556 11.2444 17.7111 10.8C17.2667 10.3555 16.6963 10.1333 16 10.1333C15.3037 10.1333 14.7333 10.3555 14.2889 10.8C13.8444 11.2444 13.6222 11.8148 13.6222 12.5111C13.6222 13.2074 13.8444 13.7777 14.2889 14.2222C14.7333 14.6666 15.3037 14.8889 16 14.8889Z" fill="#58CBFB"/>
</svg>
