<svg width="185" height="218" viewBox="0 0 185 218" fill="none" xmlns="http://www.w3.org/2000/svg">
<g clip-path="url(#clip0_46_227)">
<path opacity="0.2" d="M82.8322 206.36C128.579 206.36 165.664 169.275 165.664 123.528C165.664 77.781 128.579 40.6958 82.8322 40.6958C37.0853 40.6958 0.00012207 77.781 0.00012207 123.528C0.00012207 169.275 37.0853 206.36 82.8322 206.36Z" fill="#58CBFB"/>
<path d="M6.45386 193.001C2.91056 185.364 1.07326 177.047 1.06971 168.628C1.06616 160.21 2.89645 151.891 6.43331 144.251C9.97018 136.611 15.1287 129.833 21.5502 124.389C27.9717 118.945 35.5021 114.964 43.6176 112.725L48.5464 130.543C43.018 132.067 37.8879 134.777 33.5129 138.484C29.138 142.192 25.6233 146.808 23.2131 152.011C20.803 157.215 19.5554 162.881 19.5571 168.616C19.5587 174.35 20.8096 180.015 23.2228 185.218L6.45386 193.001Z" fill="#58CBFB"/>
<path d="M7.42091 217.427C6.39696 217.428 5.39278 217.145 4.51964 216.61C3.6465 216.075 2.93849 215.309 2.47406 214.396C1.17641 211.848 0.393397 209.069 0.169735 206.218C-0.0539281 203.367 0.286136 200.5 1.17051 197.781C2.95658 192.288 6.85133 187.73 11.9979 185.11C14.5463 183.812 17.3253 183.029 20.1762 182.805C23.0272 182.582 25.8943 182.922 28.6138 183.806C34.1061 185.592 38.664 189.487 41.2847 194.634C41.6217 195.283 41.8267 195.993 41.8881 196.723C41.9494 197.452 41.8658 198.186 41.6421 198.883C41.4183 199.58 41.0589 200.225 40.5845 200.783C40.11 201.34 39.53 201.798 38.8778 202.13C38.2256 202.462 37.5141 202.662 36.7844 202.718C36.0546 202.774 35.321 202.684 34.6259 202.456C33.9307 202.227 33.2877 201.862 32.734 201.384C32.1803 200.905 31.7268 200.322 31.3996 199.667C30.7649 198.414 29.8891 197.298 28.8226 196.383C27.756 195.469 26.5195 194.773 25.1838 194.337C23.8482 193.901 22.4397 193.733 21.039 193.842C19.6382 193.951 18.2728 194.336 17.0208 194.973C15.7688 195.611 14.6548 196.489 13.7427 197.557C12.8305 198.626 12.1381 199.864 11.7051 201.201C11.2721 202.537 11.107 203.946 11.2192 205.347C11.3315 206.747 11.7188 208.112 12.3592 209.362C12.7892 210.208 12.9954 211.149 12.958 212.097C12.9206 213.045 12.6409 213.967 12.1456 214.776C11.6503 215.585 10.9559 216.253 10.1288 216.717C9.30165 217.181 8.36935 217.426 7.42091 217.427Z" fill="#292A2E"/>
<path d="M150.774 122.973C142.983 129.627 133.557 134.079 123.469 135.87L120.214 117.669C129.183 116.053 137.317 111.384 143.236 104.453C149.154 97.5229 152.493 88.7586 152.686 79.647L171.169 80.0325C170.883 94.8809 164.884 109.048 154.42 119.586C153.246 120.772 152.031 121.901 150.774 122.973Z" fill="#58CBFB"/>
<path d="M176.483 79.5039C173.337 82.1767 169.496 83.9003 165.408 84.4738C161.321 85.0474 157.154 84.4473 153.394 82.7435C149.634 81.0397 146.436 78.3023 144.172 74.8505C141.908 71.3986 140.672 67.3744 140.607 63.2469C140.593 61.7816 141.159 60.3701 142.182 59.3208C143.205 58.2716 144.602 57.6698 146.067 57.647C147.533 57.6242 148.947 58.1821 150.003 59.199C151.058 60.2159 151.668 61.609 151.699 63.0741C151.743 65.9072 152.911 68.6068 154.945 70.579C156.98 72.5511 159.714 73.6343 162.547 73.5903C165.38 73.5462 168.08 72.3786 170.052 70.3441C172.024 68.3097 173.107 65.5752 173.063 62.7421C173.041 61.2713 173.603 59.8516 174.627 58.7954C175.651 57.7392 177.052 57.133 178.523 57.1102C179.994 57.0873 181.413 57.6496 182.469 58.6735C183.526 59.6973 184.132 61.0988 184.155 62.5696C184.207 65.43 183.691 68.2724 182.638 70.9322C181.584 73.592 180.013 76.0164 178.016 78.0651C177.526 78.5717 177.014 79.0513 176.483 79.5039Z" fill="#292A2E"/>
<path d="M136.923 0.422889L131.892 15.013C131.86 15.106 131.85 15.2052 131.863 15.3026C131.877 15.4001 131.913 15.493 131.969 15.5739C132.025 15.6548 132.099 15.7215 132.185 15.7685C132.271 15.8155 132.368 15.8415 132.466 15.8445L135.86 15.9457C135.96 15.9487 136.057 15.9754 136.144 16.0235C136.232 16.0716 136.306 16.1398 136.362 16.2224C136.417 16.3051 136.453 16.3998 136.464 16.4987C136.476 16.5976 136.464 16.6979 136.43 16.7913L130.83 31.8648C130.778 32.0058 130.778 32.161 130.831 32.3019C130.883 32.4428 130.985 32.5602 131.117 32.6326C131.248 32.705 131.402 32.7277 131.549 32.6964C131.696 32.6652 131.827 32.5821 131.918 32.4624L145.101 15.0873C145.16 15.0103 145.199 14.9209 145.218 14.826C145.236 14.7311 145.232 14.6332 145.206 14.5401C145.18 14.447 145.133 14.3612 145.068 14.2892C145.004 14.2173 144.924 14.1612 144.834 14.1254L140.885 12.55C140.808 12.5192 140.738 12.4734 140.678 12.4151C140.619 12.3569 140.572 12.2875 140.54 12.2108C140.507 12.1342 140.491 12.0519 140.491 11.9688C140.49 11.8857 140.507 11.8033 140.539 11.7266L144.966 1.09043C145.005 0.99669 145.021 0.894886 145.012 0.793761C145.003 0.692635 144.97 0.595208 144.915 0.509847C144.86 0.424486 144.785 0.353741 144.696 0.303686C144.608 0.253631 144.509 0.225763 144.407 0.222474L137.536 -3.98379e-05C137.402 -0.00436397 137.27 0.0343752 137.16 0.110493C137.049 0.18661 136.966 0.296098 136.923 0.422889Z" fill="#58CBFB"/>
<path d="M8.42252 67.3833L14.2846 78.784C14.3218 78.8567 14.3415 78.9371 14.3419 79.0187C14.3424 79.1004 14.3237 79.181 14.2874 79.2541C14.251 79.3273 14.198 79.3908 14.1326 79.4397C14.0672 79.4886 13.9912 79.5214 13.9108 79.5356L11.1323 80.0202C11.0508 80.0346 10.9739 80.0681 10.9079 80.118C10.8419 80.1679 10.7887 80.2327 10.7527 80.3072C10.7168 80.3817 10.699 80.4637 10.701 80.5464C10.7029 80.6291 10.7245 80.7102 10.764 80.7829L17.1512 92.5135C17.2098 92.6233 17.2272 92.7504 17.2003 92.8719C17.1734 92.9933 17.104 93.1012 17.0046 93.176C16.9052 93.2508 16.7823 93.2877 16.6582 93.2799C16.534 93.2721 16.4167 93.2202 16.3274 93.1335L3.43331 80.4076C3.37635 80.3511 3.33316 80.2823 3.3071 80.2065C3.28104 80.1306 3.27281 80.0498 3.28305 79.9703C3.2933 79.8908 3.32173 79.8147 3.36615 79.7479C3.41058 79.6811 3.46979 79.6255 3.5392 79.5853L6.59914 77.823C6.65892 77.7885 6.71124 77.7424 6.75309 77.6875C6.79493 77.6326 6.82546 77.5699 6.8429 77.5031C6.86034 77.4363 6.86435 77.3667 6.8547 77.2983C6.84505 77.23 6.82192 77.1642 6.78666 77.1049L1.8883 68.8838C1.84541 68.8114 1.8207 68.7296 1.81627 68.6455C1.81185 68.5614 1.82784 68.4775 1.86288 68.401C1.89792 68.3244 1.95097 68.2574 2.0175 68.2058C2.08403 68.1542 2.16206 68.1195 2.24493 68.1046L7.86854 67.1092C7.97803 67.0899 8.09083 67.1061 8.19048 67.1554C8.29013 67.2047 8.37143 67.2846 8.42252 67.3833Z" fill="#292A2E"/>
<path d="M31.2031 113.695L43.4592 183.011C45.0435 191.971 49.7331 200.087 56.7049 205.934C63.6768 211.782 72.4854 214.987 81.5848 214.987C90.4562 214.987 99.0585 211.941 105.953 206.358C112.847 200.775 117.615 192.993 119.458 184.316L134.461 113.694L31.2031 113.695Z" fill="#58CBFB"/>
<path d="M82.8322 128.96C111.346 128.96 134.461 122.126 134.461 113.695C134.461 105.265 111.346 98.4309 82.8322 98.4309C54.3183 98.4309 31.2032 105.265 31.2032 113.695C31.2032 122.126 54.3183 128.96 82.8322 128.96Z" fill="#292A2E"/>
<path d="M101.203 152.863H65.0655C61.6423 152.863 58.8673 155.638 58.8673 159.061V176.543C58.8673 179.966 61.6423 182.741 65.0655 182.741H101.203C104.626 182.741 107.401 179.966 107.401 176.543V159.061C107.401 155.638 104.626 152.863 101.203 152.863Z" fill="#292A2E"/>
<path d="M79.2184 168.36H77.0699C77.0699 165.53 78.3522 161.629 84.4614 159.12C88.04 157.65 86.8553 152.219 86.8424 152.164L88.9365 151.683C89.0047 151.979 90.5444 158.944 85.2778 161.106C81.2569 162.757 79.2184 165.199 79.2184 168.36Z" fill="#58CBFB"/>
<path d="M98.4936 183.998C96.4044 180.081 95.5324 180.158 91.8559 180.485C90.6589 180.591 89.1698 180.724 87.3516 180.724C79.2138 180.724 78.367 174.8 78.359 174.741L80.4899 174.47L79.4243 174.605L80.4887 174.46C80.5132 174.628 81.1639 178.575 87.351 178.575C89.0737 178.575 90.4509 178.453 91.665 178.345C95.8013 177.977 97.7419 178.023 100.388 182.987L98.4936 183.998Z" fill="#58CBFB"/>
<path d="M73.6596 169.461C73.5862 169.461 73.5139 169.444 73.4487 169.41L71.1266 168.213C71.0181 168.157 70.9363 168.06 70.8992 167.944C70.8621 167.827 70.8727 167.701 70.9288 167.592C70.9848 167.484 71.0817 167.402 71.198 167.365C71.3144 167.328 71.4407 167.339 71.5492 167.395L73.8713 168.592C73.9633 168.639 74.0366 168.716 74.0796 168.81C74.1225 168.904 74.1326 169.009 74.1081 169.11C74.0837 169.21 74.0261 169.3 73.9448 169.363C73.8634 169.427 73.7629 169.462 73.6596 169.461Z" fill="white"/>
<path d="M70.8541 174.018C70.7467 174.017 70.6428 173.979 70.5604 173.911C70.478 173.842 70.4222 173.746 70.4028 173.641C70.3833 173.535 70.4014 173.426 70.4539 173.332C70.5064 173.238 70.59 173.166 70.6902 173.128L73.1324 172.198C73.2448 172.161 73.3672 172.169 73.4741 172.219C73.581 172.27 73.6642 172.36 73.7064 172.471C73.7486 172.582 73.7466 172.704 73.7007 172.814C73.6549 172.923 73.5687 173.01 73.4602 173.057L71.018 173.987C70.9657 174.007 70.9102 174.018 70.8541 174.018Z" fill="white"/>
<path d="M85.541 172.125C85.4257 172.125 85.3145 172.082 85.2297 172.004C85.1449 171.925 85.0925 171.818 85.0829 171.703C85.0733 171.588 85.1073 171.474 85.178 171.383C85.2488 171.292 85.3512 171.23 85.4649 171.211L88.043 170.776C88.1631 170.756 88.2861 170.785 88.3851 170.855C88.4841 170.926 88.5511 171.033 88.5713 171.153C88.5916 171.273 88.5636 171.396 88.4933 171.496C88.4231 171.595 88.3163 171.663 88.1965 171.683L85.6184 172.119C85.5928 172.123 85.5669 172.125 85.541 172.125Z" fill="white"/>
<path d="M83.6557 169.007C83.5734 169.006 83.4926 168.984 83.4217 168.942C83.3508 168.901 83.2925 168.84 83.2528 168.768C83.213 168.696 83.1933 168.615 83.1958 168.533C83.1982 168.45 83.2226 168.37 83.2665 168.301L84.6614 166.091C84.6931 166.038 84.7348 165.993 84.7843 165.957C84.8337 165.921 84.8899 165.895 84.9495 165.881C85.0091 165.866 85.0709 165.864 85.1313 165.874C85.1917 165.884 85.2495 165.906 85.3013 165.939C85.3531 165.972 85.3978 166.014 85.4329 166.065C85.468 166.115 85.4928 166.172 85.5057 166.231C85.5186 166.291 85.5195 166.353 85.5082 166.413C85.4969 166.473 85.4738 166.531 85.4401 166.582L84.0451 168.792C84.0037 168.857 83.9462 168.912 83.8781 168.949C83.81 168.987 83.7335 169.007 83.6557 169.007Z" fill="white"/>
<path d="M109.934 166.753C105.465 166.753 101.736 165.532 98.822 163.108C93.4372 158.63 92.8599 151.719 92.8372 151.427L94.9794 151.266L93.9083 151.347L94.9791 151.264C94.9843 151.326 95.5267 157.587 100.211 161.47C103.281 164.013 107.465 165.016 112.656 164.451L112.888 166.587C111.907 166.695 110.921 166.751 109.934 166.753Z" fill="#58CBFB"/>
<path d="M53.9232 180.105L53.5264 177.993C61.7631 176.444 61.7569 173.018 61.7499 169.05C61.7453 166.378 61.7397 163.35 64.8874 161.579C70.7419 158.286 70.2729 150.821 70.2677 150.745L72.4099 150.584C72.4373 150.945 73.0026 159.478 65.9408 163.451C63.9897 164.549 63.8934 166.292 63.8983 169.046C63.9056 173.136 63.9145 178.226 53.9232 180.105Z" fill="#58CBFB"/>
<path d="M117.413 118.458C117.372 118.458 117.331 118.454 117.29 118.445C114.965 117.978 110.577 115.99 110.617 111.811C110.613 110.992 110.808 110.184 111.184 109.456C111.56 108.729 112.107 108.103 112.777 107.631C112.091 106.361 111.888 104.885 112.206 103.476C113.083 98.9056 117.684 98.1048 119.996 98.3215C120.157 98.3371 120.306 98.4161 120.41 98.5412C120.513 98.6663 120.563 98.8273 120.548 98.989C120.533 99.1506 120.455 99.2998 120.33 99.4038C120.205 99.5078 120.045 99.5582 119.883 99.544C119.656 99.5231 114.297 99.0946 113.411 103.707C113.15 104.821 113.298 105.991 113.83 107.003C116.108 105.904 119.229 105.898 120.662 106.994C120.949 107.19 121.173 107.466 121.305 107.788C121.437 108.11 121.473 108.463 121.408 108.805C121.121 110.299 119.367 111.045 117.145 110.618C115.747 110.363 114.467 109.665 113.496 108.627C112.981 108.986 112.562 109.464 112.274 110.021C111.987 110.578 111.839 111.196 111.844 111.823C111.805 116.028 117.476 117.231 117.533 117.242C117.682 117.272 117.815 117.357 117.906 117.479C117.996 117.601 118.038 117.753 118.023 117.905C118.008 118.056 117.937 118.197 117.824 118.299C117.711 118.401 117.564 118.458 117.412 118.458L117.413 118.458ZM114.602 108C115.377 108.723 116.339 109.212 117.378 109.412C118.843 109.692 120.058 109.332 120.204 108.572C120.226 108.455 120.21 108.333 120.159 108.224C120.107 108.116 120.023 108.026 119.918 107.968C118.991 107.26 116.576 107.144 114.602 108Z" fill="white"/>
<path d="M64.9465 113.847C64.8176 113.847 64.6921 113.807 64.5876 113.731C64.4831 113.656 64.4049 113.55 64.3641 113.427C64.3234 113.305 64.3222 113.173 64.3606 113.05C64.399 112.927 64.4751 112.82 64.5782 112.742C64.7105 112.642 67.8008 110.26 66.0437 107.369C65.6669 106.695 65.0756 106.165 64.3636 105.865C63.5964 107.615 61.8614 109.149 60.4987 109.264C60.2115 109.302 59.9194 109.255 59.6583 109.13C59.3972 109.005 59.1783 108.806 59.0285 108.558C58.8604 108.266 58.7752 107.933 58.782 107.596C58.7888 107.259 58.8874 106.93 59.0672 106.645C59.7513 105.396 61.4529 104.462 63.1124 104.424C63.2505 104.422 63.3886 104.424 63.5236 104.433C63.6006 104.016 63.5794 103.587 63.4617 103.179C63.344 102.772 63.1329 102.397 62.8453 102.085C60.8265 99.8119 57.1809 101.942 57.1447 101.964C57.0754 102.006 56.9987 102.033 56.9189 102.044C56.8392 102.056 56.7579 102.052 56.6797 102.032C56.6016 102.012 56.5281 101.977 56.4635 101.929C56.3989 101.881 56.3444 101.82 56.3031 101.751C56.2619 101.682 56.2347 101.605 56.2231 101.525C56.2115 101.445 56.2157 101.364 56.2355 101.286C56.2553 101.208 56.2903 101.134 56.3385 101.07C56.3867 101.005 56.4472 100.951 56.5164 100.909C56.7006 100.799 61.0784 98.2463 63.763 101.27C64.1793 101.725 64.4833 102.271 64.6506 102.865C64.818 103.458 64.844 104.083 64.7267 104.688C65.7251 105.079 66.5599 105.799 67.0927 106.73C68.9649 109.807 66.7478 112.65 65.3148 113.722C65.2089 113.803 65.0795 113.847 64.9465 113.847ZM63.105 105.655C61.769 105.698 60.5527 106.489 60.1429 107.237C60.0711 107.334 60.027 107.45 60.0153 107.57C60.0037 107.691 60.025 107.813 60.077 107.922C60.1077 107.974 60.1617 108.059 60.3968 108.041C61.1662 107.978 62.4298 106.955 63.1044 105.655H63.105Z" fill="white"/>
<path d="M132.162 62.7387C135.304 84.9594 114.453 98.8154 86.8654 102.716C59.2784 106.617 35.4034 99.087 32.2612 76.8648C29.119 54.6426 47.8995 26.1437 75.4862 22.2428C103.073 18.3419 129.019 40.5165 132.162 62.7387Z" fill="#58CBFB"/>
<path d="M105.697 38.976L77.2846 42.9933C68.3786 44.2526 62.1797 52.4932 63.4389 61.3992C64.6982 70.3052 72.9388 76.5041 81.8448 75.2448L110.257 71.2274C119.163 69.9682 125.362 61.7276 124.103 52.8216C122.844 43.9156 114.603 37.7167 105.697 38.976Z" fill="white"/>
<path d="M73.0426 5.04661L70.8395 5.46887L75.0944 27.6688L77.2976 27.2465L73.0426 5.04661Z" fill="#58CBFB"/>
<path d="M72.2559 10.9996C74.5201 10.9996 76.3557 9.16406 76.3557 6.89982C76.3557 4.63558 74.5201 2.80005 72.2559 2.80005C69.9917 2.80005 68.1561 4.63558 68.1561 6.89982C68.1561 9.16406 69.9917 10.9996 72.2559 10.9996Z" fill="#292A2E"/>
<path d="M87.6447 65.1192C87.246 65.1193 86.8581 64.9893 86.5398 64.7491L74.4747 55.6745C74.278 55.5304 74.1118 55.3488 73.9859 55.14C73.8599 54.9312 73.7767 54.6995 73.741 54.4583C73.7053 54.2171 73.7179 53.9713 73.778 53.735C73.8381 53.4987 73.9445 53.2766 74.0911 53.0818C74.2376 52.887 74.4214 52.7232 74.6318 52.5999C74.8422 52.4767 75.0749 52.3964 75.3165 52.3638C75.5582 52.3312 75.8039 52.3469 76.0394 52.4101C76.2749 52.4732 76.4955 52.5824 76.6885 52.7315L88.753 61.8067C89.0624 62.0387 89.2909 62.3623 89.4061 62.7316C89.5212 63.1008 89.5172 63.497 89.3946 63.8638C89.2719 64.2306 89.0369 64.5495 88.7228 64.7752C88.4087 65.001 88.0315 65.122 87.6447 65.1213V65.1192Z" fill="#292A2E"/>
<path d="M77.0743 66.6135C76.7322 66.6132 76.3969 66.5176 76.1061 66.3375C75.8153 66.1574 75.5804 65.8998 75.4277 65.5936C75.2751 65.2875 75.2107 64.9449 75.2419 64.6042C75.2731 64.2635 75.3985 63.9383 75.6042 63.6649L84.68 51.6001C84.9751 51.2142 85.4108 50.9606 85.8922 50.8946C86.3735 50.8285 86.8614 50.9553 87.2496 51.2474C87.6379 51.5395 87.895 51.9731 87.9649 52.4539C88.0348 52.9347 87.9119 53.4236 87.623 53.8142L78.5475 65.879C78.3759 66.1075 78.1534 66.2928 77.8976 66.4203C77.6419 66.5477 77.36 66.6139 77.0743 66.6135Z" fill="#292A2E"/>
<path d="M113.845 61.4138C113.446 61.4139 113.058 61.2839 112.74 61.0436L100.675 51.9682C100.481 51.8234 100.316 51.6415 100.192 51.433C100.068 51.2245 99.9862 50.9936 99.9515 50.7533C99.9168 50.5131 99.93 50.2684 99.9902 50.0333C100.05 49.7982 100.157 49.5773 100.302 49.3834C100.448 49.1894 100.631 49.0262 100.84 48.9031C101.049 48.7801 101.281 48.6996 101.521 48.6662C101.762 48.6329 102.006 48.6475 102.241 48.709C102.476 48.7705 102.696 48.8779 102.889 49.0248L114.954 58.1003C115.263 58.3324 115.492 58.656 115.607 59.0253C115.722 59.3945 115.718 59.7906 115.595 60.1575C115.473 60.5243 115.238 60.8432 114.924 61.0689C114.609 61.2946 114.232 61.4157 113.846 61.415L113.845 61.4138Z" fill="#292A2E"/>
<path d="M103.275 62.9088C102.933 62.9086 102.598 62.8131 102.307 62.6329C102.016 62.4528 101.781 62.1953 101.628 61.8891C101.476 61.583 101.411 61.2403 101.442 60.8996C101.473 60.5589 101.599 60.2336 101.805 59.9602L110.88 47.8954C111.174 47.5051 111.61 47.2474 112.094 47.179C112.578 47.1107 113.068 47.2372 113.459 47.5308C113.849 47.8244 114.107 48.261 114.175 48.7446C114.244 49.2282 114.117 49.7192 113.823 50.1095L104.748 62.1743C104.576 62.4028 104.354 62.5881 104.098 62.7156C103.843 62.8431 103.561 62.9092 103.275 62.9088Z" fill="#292A2E"/>
<path d="M96.3218 80.282C96.876 79.5483 97.6273 78.9871 98.4882 78.6639C99.3491 78.3408 100.284 78.269 101.184 78.4568C102.084 78.6446 102.913 79.0844 103.573 79.7249C104.232 80.3654 104.697 81.1802 104.911 82.0744C104.95 82.2326 104.957 82.397 104.933 82.558C104.908 82.719 104.852 82.8736 104.767 83.0128C104.682 83.1519 104.571 83.273 104.439 83.3689C104.307 83.4648 104.158 83.5338 103.999 83.5718C103.841 83.6097 103.677 83.616 103.516 83.5902C103.355 83.5644 103.201 83.5071 103.062 83.4214C102.923 83.3358 102.803 83.2236 102.708 83.0913C102.613 82.959 102.545 82.8092 102.508 82.6505C102.435 82.3466 102.303 82.06 102.119 81.8071C101.936 81.5542 101.704 81.3399 101.438 81.1766C101.171 81.0132 100.875 80.9039 100.567 80.8549C100.258 80.8059 99.9427 80.8182 99.6388 80.8911C99.3348 80.964 99.0482 81.096 98.7953 81.2796C98.5425 81.4632 98.3282 81.6949 98.1648 81.9613C98.0015 82.2277 97.8922 82.5237 97.8432 82.8324C97.7942 83.1411 97.8065 83.4564 97.8794 83.7603C97.9534 84.0781 97.8987 84.4123 97.7272 84.69C97.5557 84.9676 97.2813 85.1661 96.964 85.2422C96.6466 85.3183 96.3121 85.2657 96.0333 85.096C95.7546 84.9263 95.5543 84.6532 95.4762 84.3364C95.3262 83.7169 95.3004 83.0739 95.4005 82.4445C95.5006 81.815 95.7245 81.2117 96.0594 80.6694C96.1408 80.5355 96.2283 80.4064 96.3218 80.282Z" fill="#292A2E"/>
</g>
<defs>
<clipPath id="clip0_46_227">
<rect width="184.157" height="217.427" fill="white"/>
</clipPath>
</defs>
</svg>
