<svg width="49" height="26" viewBox="0 0 49 26" fill="none" xmlns="http://www.w3.org/2000/svg">
<path d="M13.2873 13.2886C13.2406 13.3763 13.1718 13.4503 13.0876 13.5031C13.0035 13.556 12.9069 13.5859 12.8076 13.5899C12.4729 13.5949 11.9282 13.1701 11.8331 13.0954C11.738 13.0207 10.9188 12.1611 10.2892 11.9013C9.95021 11.7567 9.58272 11.6915 9.21473 11.7105C8.84674 11.7295 8.48795 11.8323 8.16573 12.0111C8.16573 12.0111 6.69846 12.7476 5.83242 15.3454C4.96638 17.9431 4.95301 20.0485 5.88567 20.8081C6.81832 21.5677 7.911 20.9811 8.6438 20.6742C9.37661 20.3672 10.6022 19.6364 11.0153 19.5949C11.4284 19.5534 11.6948 19.6618 11.5482 20.3809C11.1616 21.7216 10.667 23.0288 10.0692 24.2896C9.42809 24.7707 8.70774 25.136 7.94076 25.3689C6.85188 25.6865 5.70046 25.7243 4.59311 25.4787C3.59383 25.2688 2.46132 24.5959 1.43527 23.4902C0.409211 22.3845 -0.205076 20.1144 0.0627367 17.4233C0.330549 14.7321 1.91464 11.7342 3.72673 9.90877C5.53882 8.08329 7.16413 7.47067 8.76297 7.40405C9.68808 7.40763 10.6001 7.6229 11.4292 8.03338C12.2582 8.44385 12.9824 9.03864 13.5461 9.77218C13.5966 9.84861 13.6337 9.93306 13.6559 10.0219C13.6559 10.0219 13.767 12.6723 13.2873 13.2886Z" fill="#58CBFB"/>
<path d="M21.4312 7.89844L16.9453 25.6236H14.1574C14.1574 25.6236 12.8682 25.6735 12.517 25.2139C12.1659 24.7542 12.2372 24.3344 12.4471 23.3352C12.657 22.3359 15.6146 10.5665 15.6146 10.5665C15.6146 10.5665 16.0244 8.92617 16.4141 8.50805C16.8037 8.08992 17.2935 7.89844 18.1826 7.89844H21.4312Z" fill="#58CBFB"/>
<path d="M20.6219 0.0014193C20.6219 0.0014193 22.051 -0.0585038 22.7905 0.730874C23.0619 1.01431 23.2278 1.38229 23.2605 1.77333C23.2933 2.16438 23.1908 2.55481 22.9703 2.8794C22.6804 3.31895 21.9111 4.53816 19.5329 4.53816C17.1548 4.53816 17.1246 2.99824 17.1246 2.73947C17.1523 2.17074 17.391 1.63277 17.7942 1.23068C18.1466 0.831044 18.5826 0.51378 19.0712 0.301353C19.5599 0.088926 20.0893 -0.0134688 20.6219 0.0014193V0.0014193Z" fill="#58CBFB"/>
<path d="M24.8287 7.89883H22.5603L21.6012 11.766H23.8696L20.321 25.6253H23.9194C23.9194 25.6253 25.4594 25.6836 25.998 23.6452C26.5366 21.6068 28.9958 11.7758 28.9958 11.7758H31.0342C31.3125 11.782 31.5888 11.7274 31.8437 11.6157C32.0097 11.5279 32.1519 11.401 32.2581 11.2461C32.3643 11.0912 32.4313 10.9128 32.4533 10.7263C32.623 10.0567 32.9628 8.7478 32.9628 8.7478C32.993 8.64727 32.9979 8.54083 32.977 8.43797C32.9561 8.33511 32.91 8.23902 32.843 8.15827C32.6309 7.98024 32.3601 7.88762 32.0834 7.8985H30.0748L31.7151 1.61327C31.8149 1.28958 31.7899 0.940294 31.6452 0.63408C31.3941 0.224327 30.9442 0.0341797 30.1749 0.0341797C29.4058 0.0864543 28.6518 0.27247 27.9467 0.583865C27.3917 0.797835 26.8975 1.14435 26.5072 1.59318L24.8287 7.89883Z" fill="#58CBFB"/>
<path d="M28.4565 20.483V23.5257C28.6943 23.5124 28.9232 23.4311 29.116 23.2914C29.569 23.0316 32.0405 21.0347 32.3937 20.8683C32.7469 20.702 33.6196 20.2155 34.3655 21.0022C35.1114 21.7889 35.8719 22.9258 36.284 23.3854C36.6961 23.8451 36.7571 23.8782 37.0034 24.1581C37.5017 24.7143 38.1485 25.1166 38.8677 25.3177C40.5808 25.7609 42.3856 25.6985 44.064 25.1379C46.3956 24.3984 47.0484 24.0587 47.7012 23.1796C48.354 22.3005 48.121 20.7298 47.9945 20.5168C47.9199 20.3938 47.8679 20.2585 47.8411 20.1171C47.5926 20.1361 47.3503 20.2044 47.1284 20.318C46.7686 20.5044 46.2691 20.7311 45.8359 20.951C45.1341 21.2219 44.4154 21.4467 43.6844 21.6239C43.2806 21.68 42.8701 21.6642 42.4718 21.5774C42.18 21.4409 41.9278 21.2322 41.739 20.9711C41.4445 20.5226 41.1797 20.0553 40.9463 19.5721C40.686 19.049 40.4893 18.4966 40.3601 17.9268C40.287 17.3796 40.0685 16.8621 39.7274 16.428C39.1251 16.0497 38.4725 15.7582 37.7888 15.562C37.2446 15.363 36.6475 15.363 36.1033 15.562C35.9024 15.6624 35.3373 15.8884 35.0173 16.0748C34.6972 16.2613 32.7322 17.4738 31.5929 18.2267C30.4537 18.9796 29.3945 19.6923 29.0614 19.9521C28.8343 20.0977 28.6304 20.2767 28.4565 20.483V20.483Z" fill="#58CBFB"/>
<path d="M39.8777 6.67985C39.8777 6.67985 37.9592 7.33934 36.9499 8.11934C35.9406 8.89935 35.8706 8.94889 35.7708 9.70814C35.6711 10.4674 35.9308 11.3669 36.8702 11.6267C37.7715 11.8211 38.7029 11.8314 39.6083 11.6568C40.5607 11.4469 41.4656 11.0609 42.2763 10.5186C42.6909 10.1354 43.0299 9.67776 43.2756 9.1695C43.3657 9.03961 43.4704 8.6399 43.6753 8.22513C43.9218 7.84506 44.0742 7.41174 44.1199 6.96105C44.1149 6.50142 44.0195 5.97182 42.8859 5.97684C41.85 6.03491 40.8321 6.2728 39.8777 6.67985V6.67985Z" fill="#58CBFB"/>
</svg>
